<svg version="1.1" id="Layer_1" xmlns="http://www.w3.org/2000/svg" xmlns:xlink="http://www.w3.org/1999/xlink" x="0px" y="0px"
	 width="100%" viewBox="0 0 500 500" enable-background="new 0 0 500 500" xml:space="preserve">
<path fill="#000000" opacity="1.000000" stroke="none" 
	d="
M298.000000,501.000000 
	C198.666687,501.000000 99.833382,501.000000 1.000053,501.000000 
	C1.000035,334.333405 1.000035,167.666794 1.000018,1.000143 
	C167.666565,1.000095 334.333130,1.000095 500.999756,1.000047 
	C500.999847,167.666519 500.999847,334.333038 500.999939,500.999786 
	C433.500000,501.000000 366.000000,501.000000 298.000000,501.000000 
M422.940948,286.278595 
	C427.409912,262.020050 427.639832,237.771393 422.310669,213.625305 
	C415.482727,182.688507 400.355621,156.039658 379.181610,132.800644 
	C363.017609,115.060219 343.983246,101.126160 322.097900,90.946877 
	C289.812744,75.930473 256.094147,72.740822 221.377686,78.104317 
	C197.748215,81.754929 176.136856,90.897629 156.215561,104.168343 
	C139.740341,115.143417 125.673027,128.592484 113.393364,144.055725 
	C100.126923,160.761581 89.880936,179.094284 83.430359,199.428528 
	C75.993675,222.871307 74.437263,246.871918 76.894867,271.289581 
	C78.783737,290.056519 84.204216,307.773499 92.391411,324.575287 
	C103.499466,347.371155 118.762833,367.021759 138.025787,383.731201 
	C152.616776,396.388031 168.514252,406.631195 186.326782,413.936768 
	C213.668610,425.150726 242.065445,428.015625 271.347626,425.129120 
	C293.037567,422.991089 313.343506,416.453796 332.254028,406.159637 
	C357.253357,392.551025 377.831848,373.608429 394.347168,350.369904 
	C407.994568,331.166870 417.197083,309.942352 422.940948,286.278595 
z"/>
<path fill="#022035" opacity="1.000000" stroke="none" 
	d="
M422.871460,286.694580 
	C417.197083,309.942352 407.994568,331.166870 394.347168,350.369904 
	C377.831848,373.608429 357.253357,392.551025 332.254028,406.159637 
	C313.343506,416.453796 293.037567,422.991089 271.347626,425.129120 
	C242.065445,428.015625 213.668610,425.150726 186.326782,413.936768 
	C168.514252,406.631195 152.616776,396.388031 138.025787,383.731201 
	C118.762833,367.021759 103.499466,347.371155 92.391411,324.575287 
	C84.204216,307.773499 78.783737,290.056519 76.894867,271.289581 
	C74.437263,246.871918 75.993675,222.871307 83.430359,199.428528 
	C89.880936,179.094284 100.126923,160.761581 113.393364,144.055725 
	C125.673027,128.592484 139.740341,115.143417 156.215561,104.168343 
	C176.136856,90.897629 197.748215,81.754929 221.377686,78.104317 
	C256.094147,72.740822 289.812744,75.930473 322.097900,90.946877 
	C343.983246,101.126160 363.017609,115.060219 379.181610,132.800644 
	C400.355621,156.039658 415.482727,182.688507 422.310669,213.625305 
	C427.639832,237.771393 427.409912,262.020050 422.871460,286.694580 
M177.958435,97.419487 
	C162.862442,104.374031 149.708786,114.236000 137.401123,125.195442 
	C119.654510,140.998032 106.181252,160.189011 95.963959,181.463531 
	C85.490860,203.270676 79.963318,226.667786 80.322334,250.810211 
	C80.529579,264.746033 83.106468,278.819946 86.106606,292.505157 
	C92.548042,321.887970 108.675774,346.209167 128.668381,368.037292 
	C144.350754,385.159576 163.180542,398.131653 184.359009,407.703613 
	C206.385071,417.658691 229.760483,421.236511 253.615051,421.779846 
	C261.969849,421.970154 270.417267,420.318054 278.746460,419.020020 
	C311.953125,413.845001 340.486450,398.875275 365.010712,376.324860 
	C380.895966,361.718079 393.527252,344.493011 403.504395,325.231201 
	C419.707794,293.948975 424.909912,260.813538 419.688599,226.312302 
	C414.424988,191.531616 398.765930,161.299164 374.913208,135.604706 
	C358.621704,118.055298 339.530426,103.966583 317.471039,94.235687 
	C288.148224,81.300720 257.449615,77.886581 225.975906,82.350777 
	C209.520004,84.684868 193.564407,89.508667 177.958435,97.419487 
z"/>
<path fill="#000000" opacity="1.000000" stroke="none" 
	d="
M178.256683,97.193863 
	C193.564407,89.508667 209.520004,84.684868 225.975906,82.350777 
	C257.449615,77.886581 288.148224,81.300720 317.471039,94.235687 
	C339.530426,103.966583 358.621704,118.055298 374.913208,135.604706 
	C398.765930,161.299164 414.424988,191.531616 419.688599,226.312302 
	C424.909912,260.813538 419.707794,293.948975 403.504395,325.231201 
	C393.527252,344.493011 380.895966,361.718079 365.010712,376.324860 
	C340.486450,398.875275 311.953125,413.845001 278.746460,419.020020 
	C270.417267,420.318054 261.969849,421.970154 253.615051,421.779846 
	C229.760483,421.236511 206.385071,417.658691 184.359009,407.703613 
	C163.180542,398.131653 144.350754,385.159576 128.668381,368.037292 
	C108.675774,346.209167 92.548042,321.887970 86.106606,292.505157 
	C83.106468,278.819946 80.529579,264.746033 80.322334,250.810211 
	C79.963318,226.667786 85.490860,203.270676 95.963959,181.463531 
	C106.181252,160.189011 119.654510,140.998032 137.401123,125.195442 
	C149.708786,114.236000 162.862442,104.374031 178.256683,97.193863 
M203.022476,365.493713 
	C228.389557,375.967590 254.448364,377.950195 281.053894,371.395782 
	C307.742249,364.820923 329.678741,350.716919 347.176788,329.424896 
	C363.881378,309.098267 373.040497,285.750458 374.816956,259.779663 
	C376.481140,235.449722 371.491760,212.347015 359.470642,190.758316 
	C347.188049,168.699982 329.897766,151.843887 307.642975,140.531677 
	C283.004700,128.007935 256.769745,124.195351 229.269333,128.864639 
	C199.603378,133.901642 175.073013,148.091797 156.032135,170.843643 
	C130.540909,201.302979 121.435768,236.988785 129.424698,275.761078 
	C138.073746,317.737091 162.901352,347.689453 203.022476,365.493713 
M288.993042,109.547859 
	C288.210022,111.915916 287.016113,114.247513 286.801575,116.666000 
	C286.677338,118.066360 287.764832,120.105667 288.952759,120.974716 
	C291.088745,122.537300 292.548248,121.380081 293.200775,118.878044 
	C293.642517,117.184273 294.465729,115.590012 295.342133,113.389252 
	C297.674774,123.676605 297.674774,123.676605 306.589661,118.992561 
	C305.319824,127.327858 305.319824,127.327858 311.067169,128.435242 
	C313.586731,121.406944 316.135620,114.296829 318.737823,107.038055 
	C310.269073,102.340988 307.785461,111.326088 301.941864,113.358795 
	C301.281860,110.292908 300.480072,107.302841 300.023010,104.260979 
	C299.437103,100.361801 297.478790,98.375999 293.249939,98.598244 
	C291.885193,102.034569 290.542786,105.414642 288.993042,109.547859 
M144.542145,154.321518 
	C143.525497,153.230606 142.636017,151.973907 141.469177,151.078781 
	C137.403580,147.959930 132.816162,147.597519 128.430969,149.923645 
	C123.578751,152.497482 120.800079,156.739304 121.018303,162.475006 
	C121.203812,167.350693 123.299698,171.036179 127.978371,172.986572 
	C132.547028,174.891083 136.749969,174.258026 140.448700,171.015823 
	C145.388840,166.685425 147.551254,161.507828 144.542145,154.321518 
M366.094208,149.571014 
	C361.792908,153.083160 357.491638,156.595322 353.046478,160.224945 
	C354.712585,162.430756 355.951447,164.070938 357.242096,165.779678 
	C359.896820,163.997726 362.051971,162.551102 364.552002,160.873001 
	C366.040985,162.903381 367.355896,164.696411 368.726654,166.565582 
	C367.078583,167.908463 365.380554,168.711655 364.664703,170.042969 
	C363.985779,171.305618 363.661011,173.825500 364.393188,174.527206 
	C365.460724,175.550339 368.251709,176.338882 369.198669,175.666092 
	C374.651672,171.791824 379.777771,167.457428 385.393768,162.976532 
	C383.304565,160.993210 381.698853,159.468872 380.305267,158.145950 
	C377.719391,159.646622 375.670776,160.835480 373.382385,162.163513 
	C372.027344,159.987305 371.020813,158.370819 369.904175,156.577438 
	C371.922058,154.765656 373.618256,153.242752 375.685059,151.387039 
	C374.203979,149.539917 372.749390,147.725861 371.258057,145.865982 
	C369.355408,147.248428 368.025146,148.214981 366.094208,149.571014 
M247.005157,110.314690 
	C250.210342,113.413956 252.610687,118.512886 258.760498,114.970238 
	C257.519318,112.889450 256.357330,110.941437 255.211365,109.020271 
	C255.525391,108.438797 255.677231,107.939110 255.997879,107.598175 
	C258.781219,104.638626 260.046295,100.852135 257.498505,97.779533 
	C255.556946,95.438042 252.017120,94.040565 248.921722,93.154449 
	C246.318283,92.409164 243.258163,92.636528 240.543488,93.166763 
	C239.199219,93.429329 237.186203,95.337273 237.178604,96.511772 
	C237.142471,102.107689 237.539429,107.724602 238.171280,113.289886 
	C238.285294,114.294174 240.188690,115.748497 241.323166,115.802940 
	C242.494583,115.859169 243.951187,114.657791 244.879532,113.638924 
	C245.647614,112.795967 245.828049,111.417572 247.005157,110.314690 
M361.980347,136.481842 
	C358.587433,133.612793 355.194519,130.743729 351.467926,127.592522 
	C346.184937,133.490067 341.152557,139.107864 336.932922,143.818344 
	C339.105530,146.588989 340.752136,149.145966 342.855682,151.244995 
	C345.029755,153.414368 347.647766,155.138840 350.250061,157.199265 
	C351.743500,155.914795 352.846741,154.965927 353.895447,154.063965 
	C350.953156,150.481049 348.504395,147.499115 346.055634,144.517181 
	C347.005768,143.704620 347.955902,142.892044 348.906036,142.079483 
	C349.768036,143.715424 350.438385,145.496277 351.539062,146.951706 
	C353.007751,148.893692 354.918030,149.836426 356.919342,147.490112 
	C359.021759,145.025253 357.129089,143.701401 355.426331,142.203339 
	C354.098755,141.035370 353.001251,139.605881 351.801514,138.292618 
	C352.291809,137.867676 352.782104,137.442734 353.272400,137.017807 
	C354.790527,138.450775 356.112305,140.246689 357.886414,141.206482 
	C359.416046,142.034012 361.930328,142.743973 363.183929,142.038773 
	C366.151520,140.369354 364.075958,138.521637 361.980347,136.481842 
M167.507599,137.008850 
	C169.220810,140.927048 171.558777,141.863007 175.179855,138.997421 
	C177.507431,137.155472 180.064011,135.502563 182.735962,134.218628 
	C187.241104,132.053787 186.122238,129.854492 183.244446,127.160294 
	C179.888077,129.010162 176.680511,130.778015 173.472946,132.545868 
	C173.075012,131.984940 172.677078,131.424011 172.279144,130.863068 
	C173.672104,129.816666 174.973312,128.608444 176.476379,127.756233 
	C180.029037,125.741974 181.045425,123.574120 177.058563,120.568085 
	C174.374298,121.956116 171.569153,123.406654 168.764023,124.857201 
	C168.436325,124.355431 168.108643,123.853661 167.780945,123.351891 
	C170.695602,121.318619 173.610245,119.285347 176.737656,117.103645 
	C175.812790,114.885529 175.356033,111.806015 171.789902,113.701599 
	C167.167175,116.158836 162.759964,119.021484 158.050201,121.834908 
	C161.367294,127.127319 164.261719,131.745361 167.507599,137.008850 
M273.948730,94.481499 
	C266.542572,93.344826 266.258423,93.519066 265.146057,100.361595 
	C264.457092,104.599571 263.855774,108.851746 263.174347,113.091003 
	C262.798401,115.429604 263.243652,116.808495 266.072906,117.068405 
	C270.010590,117.430153 273.886383,118.523582 277.823883,118.797699 
	C279.138885,118.889252 281.346497,117.725945 281.771027,116.612175 
	C282.630127,114.358047 281.322815,113.117432 278.677399,112.905769 
	C276.121948,112.701294 273.624146,111.776321 271.100983,111.167854 
	C271.195770,110.496994 271.290558,109.826126 271.385345,109.155266 
	C273.471832,109.348343 275.624847,109.939651 277.623199,109.605644 
	C279.159760,109.348831 280.501617,107.927315 281.930054,107.023735 
	C280.799377,106.016907 279.821075,104.652718 278.501068,104.089813 
	C276.674286,103.310783 274.590363,103.134758 272.616516,102.700516 
	C272.667633,102.134415 272.718719,101.568314 272.769806,101.002213 
	C274.342468,101.002213 275.921753,100.911507 277.486145,101.025299 
	C279.413025,101.165459 281.327454,101.475990 283.570160,101.752724 
	C283.933167,99.822052 284.244598,98.165611 284.593231,96.311409 
	C280.967957,95.740845 277.874756,95.254028 273.948730,94.481499 
M335.083252,133.950302 
	C341.884521,130.893616 344.225708,125.832863 340.067383,120.744705 
	C337.167419,117.196213 332.526093,115.034592 328.523163,112.471176 
	C328.040802,112.162277 326.268677,112.949188 325.801697,113.680145 
	C322.154358,119.388802 318.680176,125.208046 314.968018,131.295700 
	C317.208435,132.658432 319.112915,133.816818 320.941010,134.928741 
	C322.442566,133.198853 323.584076,131.883728 324.110016,131.277802 
	C327.990784,132.312714 331.133636,133.150848 335.083252,133.950302 
M212.930710,118.452354 
	C214.623550,123.576141 217.359985,118.958313 219.715668,119.609253 
	C219.839142,117.430626 219.937683,115.691963 220.046204,113.777260 
	C221.559921,113.417259 222.857574,113.185959 224.106644,112.798225 
	C229.539124,111.111862 231.711884,107.916397 230.947830,102.830826 
	C230.265930,98.292007 227.074066,95.830505 221.487457,96.064232 
	C218.366592,96.194794 215.263260,96.918159 212.169617,97.472511 
	C209.556107,97.940834 208.574158,99.476372 209.215836,102.146851 
	C210.454895,107.303688 211.580048,112.487892 212.930710,118.452354 
M161.371902,136.964340 
	C156.735443,137.523483 152.098999,138.082642 146.683350,138.735748 
	C148.651642,137.166565 150.623184,136.025665 151.967438,134.374176 
	C152.888840,133.242172 152.937531,131.399811 153.376343,129.875000 
	C152.013229,129.545563 150.136322,128.485168 149.378983,129.017517 
	C146.600571,130.970551 143.913010,133.214523 141.722397,135.799164 
	C139.251022,138.715073 139.685318,141.872681 142.291458,144.803680 
	C144.965027,147.810547 147.753738,147.200989 150.834167,145.624954 
	C152.865753,144.585526 155.043747,143.832291 157.156189,142.950912 
	C157.448303,143.522049 157.740402,144.093185 158.032516,144.664322 
	C155.106033,146.498703 152.179550,148.333084 148.565063,150.598740 
	C149.719055,152.062546 151.622467,154.815155 151.831497,154.692001 
	C155.737625,152.390594 160.066696,150.299591 162.987213,146.997208 
	C165.224762,144.467102 164.918152,140.406601 161.371902,136.964340 
M181.470230,108.745697 
	C184.406464,115.824684 187.342682,122.903671 190.423904,130.332245 
	C193.167221,128.821320 194.998596,127.812668 197.180084,126.611176 
	C193.873352,119.515358 190.759171,112.832726 187.541031,105.927002 
	C185.257019,106.849007 183.586624,107.523308 181.470230,108.745697 
M102.561630,256.920258 
	C104.682831,255.399200 107.748833,254.316406 108.705093,252.254974 
	C110.160179,249.118195 108.052902,246.091843 104.708344,245.612350 
	C102.714745,245.326553 99.077820,246.495224 98.565948,247.887421 
	C97.360962,251.164780 96.756310,255.290726 102.561630,256.920258 
M403.552612,247.368362 
	C402.452576,246.660004 401.154022,245.172546 400.290527,245.392563 
	C397.906738,245.999924 394.844238,246.766663 393.704559,248.536026 
	C392.801208,249.938538 393.603149,253.852524 394.991974,254.949265 
	C396.611328,256.228088 400.752869,256.735992 401.883942,255.625977 
	C403.465973,254.073410 403.276306,250.715546 403.552612,247.368362 
z"/>
<path fill="#08263A" opacity="1.000000" stroke="none" 
	d="
M202.681458,365.314819 
	C162.901352,347.689453 138.073746,317.737091 129.424698,275.761078 
	C121.435768,236.988785 130.540909,201.302979 156.032135,170.843643 
	C175.073013,148.091797 199.603378,133.901642 229.269333,128.864639 
	C256.769745,124.195351 283.004700,128.007935 307.642975,140.531677 
	C329.897766,151.843887 347.188049,168.699982 359.470642,190.758316 
	C371.491760,212.347015 376.481140,235.449722 374.816956,259.779663 
	C373.040497,285.750458 363.881378,309.098267 347.176788,329.424896 
	C329.678741,350.716919 307.742249,364.820923 281.053894,371.395782 
	C254.448364,377.950195 228.389557,375.967590 202.681458,365.314819 
M350.580780,184.948837 
	C322.962006,145.714386 284.895660,127.430641 237.464157,132.409317 
	C164.816772,140.034790 113.138519,212.560898 137.773682,289.234131 
	C152.939453,336.435303 200.870682,371.875122 252.369980,370.249115 
	C292.522949,368.981354 324.994995,353.173676 347.690735,320.562531 
	C378.114685,276.846893 378.016113,231.245865 350.580780,184.948837 
z"/>
<path fill="#022034" opacity="1.000000" stroke="none" 
	d="
M289.096710,109.171295 
	C290.542786,105.414642 291.885193,102.034569 293.249939,98.598244 
	C297.478790,98.375999 299.437103,100.361801 300.023010,104.260979 
	C300.480072,107.302841 301.281860,110.292908 301.941864,113.358795 
	C307.785461,111.326088 310.269073,102.340988 318.737823,107.038055 
	C316.135620,114.296829 313.586731,121.406944 311.067169,128.435242 
	C305.319824,127.327858 305.319824,127.327858 306.589661,118.992561 
	C297.674774,123.676605 297.674774,123.676605 295.342133,113.389252 
	C294.465729,115.590012 293.642517,117.184273 293.200775,118.878044 
	C292.548248,121.380081 291.088745,122.537300 288.952759,120.974716 
	C287.764832,120.105667 286.677338,118.066360 286.801575,116.666000 
	C287.016113,114.247513 288.210022,111.915916 289.096710,109.171295 
z"/>
<path fill="#022135" opacity="1.000000" stroke="none" 
	d="
M144.700500,154.676849 
	C147.551254,161.507828 145.388840,166.685425 140.448700,171.015823 
	C136.749969,174.258026 132.547028,174.891083 127.978371,172.986572 
	C123.299698,171.036179 121.203812,167.350693 121.018303,162.475006 
	C120.800079,156.739304 123.578751,152.497482 128.430969,149.923645 
	C132.816162,147.597519 137.403580,147.959930 141.469177,151.078781 
	C142.636017,151.973907 143.525497,153.230606 144.700500,154.676849 
M128.441498,158.357941 
	C127.590424,161.283844 127.520218,164.195892 130.643951,165.663803 
	C132.217834,166.403427 134.702774,166.797623 136.070480,166.052841 
	C138.966431,164.475876 140.177109,161.723495 137.956894,158.545547 
	C135.456650,154.966751 132.794357,154.756119 128.441498,158.357941 
z"/>
<path fill="#022034" opacity="1.000000" stroke="none" 
	d="
M366.394531,149.376282 
	C368.025146,148.214981 369.355408,147.248428 371.258057,145.865982 
	C372.749390,147.725861 374.203979,149.539917 375.685059,151.387039 
	C373.618256,153.242752 371.922058,154.765656 369.904175,156.577438 
	C371.020813,158.370819 372.027344,159.987305 373.382385,162.163513 
	C375.670776,160.835480 377.719391,159.646622 380.305267,158.145950 
	C381.698853,159.468872 383.304565,160.993210 385.393768,162.976532 
	C379.777771,167.457428 374.651672,171.791824 369.198669,175.666092 
	C368.251709,176.338882 365.460724,175.550339 364.393188,174.527206 
	C363.661011,173.825500 363.985779,171.305618 364.664703,170.042969 
	C365.380554,168.711655 367.078583,167.908463 368.726654,166.565582 
	C367.355896,164.696411 366.040985,162.903381 364.552002,160.873001 
	C362.051971,162.551102 359.896820,163.997726 357.242096,165.779678 
	C355.951447,164.070938 354.712585,162.430756 353.046478,160.224945 
	C357.491638,156.595322 361.792908,153.083160 366.394531,149.376282 
z"/>
<path fill="#022135" opacity="1.000000" stroke="none" 
	d="
M246.636993,110.295547 
	C245.828049,111.417572 245.647614,112.795967 244.879532,113.638924 
	C243.951187,114.657791 242.494583,115.859169 241.323166,115.802940 
	C240.188690,115.748497 238.285294,114.294174 238.171280,113.289886 
	C237.539429,107.724602 237.142471,102.107689 237.178604,96.511772 
	C237.186203,95.337273 239.199219,93.429329 240.543488,93.166763 
	C243.258163,92.636528 246.318283,92.409164 248.921722,93.154449 
	C252.017120,94.040565 255.556946,95.438042 257.498505,97.779533 
	C260.046295,100.852135 258.781219,104.638626 255.997879,107.598175 
	C255.677231,107.939110 255.525391,108.438797 255.211365,109.020271 
	C256.357330,110.941437 257.519318,112.889450 258.760498,114.970238 
	C252.610687,118.512886 250.210342,113.413956 246.636993,110.295547 
M246.637375,103.875473 
	C248.012573,102.976547 249.387772,102.077621 250.762970,101.178696 
	C249.494049,100.484543 248.225128,99.790390 246.956223,99.096230 
	C246.602997,100.601204 246.249771,102.106171 246.637375,103.875473 
z"/>
<path fill="#022035" opacity="1.000000" stroke="none" 
	d="
M362.231201,136.732574 
	C364.075958,138.521637 366.151520,140.369354 363.183929,142.038773 
	C361.930328,142.743973 359.416046,142.034012 357.886414,141.206482 
	C356.112305,140.246689 354.790527,138.450775 353.272400,137.017807 
	C352.782104,137.442734 352.291809,137.867676 351.801514,138.292618 
	C353.001251,139.605881 354.098755,141.035370 355.426331,142.203339 
	C357.129089,143.701401 359.021759,145.025253 356.919342,147.490112 
	C354.918030,149.836426 353.007751,148.893692 351.539062,146.951706 
	C350.438385,145.496277 349.768036,143.715424 348.906036,142.079483 
	C347.955902,142.892044 347.005768,143.704620 346.055634,144.517181 
	C348.504395,147.499115 350.953156,150.481049 353.895447,154.063965 
	C352.846741,154.965927 351.743500,155.914795 350.250061,157.199265 
	C347.647766,155.138840 345.029755,153.414368 342.855682,151.244995 
	C340.752136,149.145966 339.105530,146.588989 336.932922,143.818344 
	C341.152557,139.107864 346.184937,133.490067 351.467926,127.592522 
	C355.194519,130.743729 358.587433,133.612793 362.231201,136.732574 
z"/>
<path fill="#022034" opacity="1.000000" stroke="none" 
	d="
M167.331879,136.686127 
	C164.261719,131.745361 161.367294,127.127319 158.050201,121.834908 
	C162.759964,119.021484 167.167175,116.158836 171.789902,113.701599 
	C175.356033,111.806015 175.812790,114.885529 176.737656,117.103645 
	C173.610245,119.285347 170.695602,121.318619 167.780945,123.351891 
	C168.108643,123.853661 168.436325,124.355431 168.764023,124.857201 
	C171.569153,123.406654 174.374298,121.956116 177.058563,120.568085 
	C181.045425,123.574120 180.029037,125.741974 176.476379,127.756233 
	C174.973312,128.608444 173.672104,129.816666 172.279144,130.863068 
	C172.677078,131.424011 173.075012,131.984940 173.472946,132.545868 
	C176.680511,130.778015 179.888077,129.010162 183.244446,127.160294 
	C186.122238,129.854492 187.241104,132.053787 182.735962,134.218628 
	C180.064011,135.502563 177.507431,137.155472 175.179855,138.997421 
	C171.558777,141.863007 169.220810,140.927048 167.331879,136.686127 
z"/>
<path fill="#022035" opacity="1.000000" stroke="none" 
	d="
M274.365173,94.624359 
	C277.874756,95.254028 280.967957,95.740845 284.593231,96.311409 
	C284.244598,98.165611 283.933167,99.822052 283.570160,101.752724 
	C281.327454,101.475990 279.413025,101.165459 277.486145,101.025299 
	C275.921753,100.911507 274.342468,101.002213 272.769806,101.002213 
	C272.718719,101.568314 272.667633,102.134415 272.616516,102.700516 
	C274.590363,103.134758 276.674286,103.310783 278.501068,104.089813 
	C279.821075,104.652718 280.799377,106.016907 281.930054,107.023727 
	C280.501617,107.927315 279.159760,109.348831 277.623199,109.605644 
	C275.624847,109.939651 273.471832,109.348343 271.385345,109.155266 
	C271.290558,109.826126 271.195770,110.496994 271.100983,111.167854 
	C273.624146,111.776321 276.121948,112.701294 278.677399,112.905769 
	C281.322815,113.117432 282.630127,114.358047 281.771027,116.612175 
	C281.346497,117.725945 279.138885,118.889252 277.823883,118.797699 
	C273.886383,118.523582 270.010590,117.430153 266.072906,117.068405 
	C263.243652,116.808495 262.798401,115.429604 263.174347,113.091003 
	C263.855774,108.851746 264.457092,104.599571 265.146057,100.361595 
	C266.258423,93.519066 266.542572,93.344826 274.365173,94.624359 
z"/>
<path fill="#022034" opacity="1.000000" stroke="none" 
	d="
M334.679871,133.969635 
	C331.133636,133.150848 327.990784,132.312714 324.110016,131.277802 
	C323.584076,131.883728 322.442566,133.198853 320.941010,134.928741 
	C319.112915,133.816818 317.208435,132.658432 314.968018,131.295700 
	C318.680176,125.208046 322.154358,119.388802 325.801697,113.680145 
	C326.268677,112.949188 328.040802,112.162277 328.523163,112.471176 
	C332.526093,115.034592 337.167419,117.196213 340.067383,120.744705 
	C344.225708,125.832863 341.884521,130.893616 334.679871,133.969635 
M333.771759,122.769440 
	C332.246277,122.636551 330.692902,122.305405 329.215424,122.513466 
	C328.856689,122.563988 328.334167,125.130112 328.594025,125.275467 
	C329.918488,126.016373 331.463562,126.566170 332.959106,126.642822 
	C333.296356,126.660110 333.744049,124.522697 333.771759,122.769440 
z"/>
<path fill="#022135" opacity="1.000000" stroke="none" 
	d="
M212.841568,118.056549 
	C211.580048,112.487892 210.454895,107.303688 209.215836,102.146851 
	C208.574158,99.476372 209.556107,97.940834 212.169617,97.472511 
	C215.263260,96.918159 218.366592,96.194794 221.487457,96.064232 
	C227.074066,95.830505 230.265930,98.292007 230.947830,102.830826 
	C231.711884,107.916397 229.539124,111.111862 224.106644,112.798225 
	C222.857574,113.185959 221.559921,113.417259 220.046204,113.777260 
	C219.937683,115.691963 219.839142,117.430626 219.715668,119.609253 
	C217.359985,118.958313 214.623550,123.576141 212.841568,118.056549 
M218.321396,107.128777 
	C220.088684,106.552788 221.882538,106.037170 223.575562,105.292366 
	C223.719406,105.229103 223.413834,103.051994 222.930450,102.866982 
	C221.655106,102.378830 219.723038,101.846657 218.889374,102.463364 
	C218.069092,103.070198 218.276962,105.066864 218.321396,107.128777 
z"/>
<path fill="#022134" opacity="1.000000" stroke="none" 
	d="
M161.672302,137.232666 
	C164.918152,140.406601 165.224762,144.467102 162.987213,146.997208 
	C160.066696,150.299591 155.737625,152.390594 151.831497,154.692001 
	C151.622467,154.815155 149.719055,152.062546 148.565063,150.598740 
	C152.179550,148.333084 155.106033,146.498703 158.032516,144.664322 
	C157.740402,144.093185 157.448303,143.522049 157.156189,142.950912 
	C155.043747,143.832291 152.865753,144.585526 150.834167,145.624954 
	C147.753738,147.200989 144.965027,147.810547 142.291458,144.803680 
	C139.685318,141.872681 139.251022,138.715073 141.722397,135.799164 
	C143.913010,133.214523 146.600571,130.970551 149.378983,129.017517 
	C150.136322,128.485168 152.013229,129.545563 153.376343,129.875000 
	C152.937531,131.399811 152.888840,133.242172 151.967438,134.374176 
	C150.623184,136.025665 148.651642,137.166565 146.683350,138.735748 
	C152.098999,138.082642 156.735443,137.523483 161.672302,137.232666 
z"/>
<path fill="#022034" opacity="1.000000" stroke="none" 
	d="
M181.693222,108.471649 
	C183.586624,107.523308 185.257019,106.849007 187.541031,105.927002 
	C190.759171,112.832726 193.873352,119.515358 197.180084,126.611176 
	C194.998596,127.812668 193.167221,128.821320 190.423904,130.332245 
	C187.342682,122.903671 184.406464,115.824684 181.693222,108.471649 
z"/>
<path fill="#2E2F38" opacity="1.000000" stroke="none" 
	d="
M102.174728,256.855835 
	C96.756310,255.290726 97.360962,251.164780 98.565948,247.887421 
	C99.077820,246.495224 102.714745,245.326553 104.708344,245.612350 
	C108.052902,246.091843 110.160179,249.118195 108.705093,252.254974 
	C107.748833,254.316406 104.682831,255.399200 102.174728,256.855835 
z"/>
<path fill="#2E2F38" opacity="1.000000" stroke="none" 
	d="
M403.698608,247.749207 
	C403.276306,250.715546 403.465973,254.073410 401.883942,255.625977 
	C400.752869,256.735992 396.611328,256.228088 394.991974,254.949265 
	C393.603149,253.852524 392.801208,249.938538 393.704559,248.536026 
	C394.844238,246.766663 397.906738,245.999924 400.290527,245.392563 
	C401.154022,245.172546 402.452576,246.660004 403.698608,247.749207 
z"/>
<path fill="#F7F8F9" opacity="1.000000" stroke="none" 
	d="
M350.776855,185.252716 
	C378.016113,231.245865 378.114685,276.846893 347.690735,320.562531 
	C324.994995,353.173676 292.522949,368.981354 252.369980,370.249115 
	C200.870682,371.875122 152.939453,336.435303 137.773682,289.234131 
	C113.138519,212.560898 164.816772,140.034790 237.464157,132.409317 
	C284.895660,127.430641 322.962006,145.714386 350.776855,185.252716 
M327.118469,333.629883 
	C357.483185,303.793335 369.233002,267.982574 360.362885,226.217392 
	C348.141296,168.671692 290.407227,129.073578 229.851532,140.857346 
	C148.725739,156.643921 110.545105,251.123291 161.505829,318.782532 
	C201.705460,372.154510 276.584534,378.502808 327.118469,333.629883 
z"/>
<path fill="#000000" opacity="1.000000" stroke="none" 
	d="
M128.664093,158.042633 
	C132.794357,154.756119 135.456650,154.966751 137.956894,158.545547 
	C140.177109,161.723495 138.966431,164.475876 136.070480,166.052841 
	C134.702774,166.797623 132.217834,166.403427 130.643951,165.663803 
	C127.520218,164.195892 127.590424,161.283844 128.664093,158.042633 
z"/>
<path fill="#000000" opacity="1.000000" stroke="none" 
	d="
M246.266968,103.743301 
	C246.249771,102.106171 246.602997,100.601204 246.956207,99.096230 
	C248.225128,99.790390 249.494049,100.484543 250.762970,101.178696 
	C249.387772,102.077621 248.012573,102.976547 246.266968,103.743301 
z"/>
<path fill="#000000" opacity="1.000000" stroke="none" 
	d="
M333.956360,123.073303 
	C333.744049,124.522697 333.296356,126.660110 332.959106,126.642822 
	C331.463562,126.566170 329.918488,126.016373 328.594025,125.275467 
	C328.334167,125.130112 328.856689,122.563988 329.215424,122.513466 
	C330.692902,122.305405 332.246277,122.636551 333.956360,123.073303 
z"/>
<path fill="#000000" opacity="1.000000" stroke="none" 
	d="
M218.177536,106.791229 
	C218.276962,105.066864 218.069092,103.070198 218.889374,102.463364 
	C219.723038,101.846657 221.655106,102.378830 222.930450,102.866982 
	C223.413834,103.051994 223.719406,105.229103 223.575562,105.292366 
	C221.882538,106.037170 220.088684,106.552788 218.177536,106.791229 
z"/>
<path fill="#042337" opacity="1.000000" stroke="none" 
	d="
M326.865784,333.877960 
	C276.584534,378.502808 201.705460,372.154510 161.505829,318.782532 
	C110.545105,251.123291 148.725739,156.643921 229.851532,140.857346 
	C290.407227,129.073578 348.141296,168.671692 360.362885,226.217392 
	C369.233002,267.982574 357.483185,303.793335 326.865784,333.877960 
M321.155792,214.989670 
	C306.972595,224.548706 291.756012,228.059723 274.527679,223.319229 
	C283.975403,215.177689 285.718994,205.337936 279.510132,197.709595 
	C274.290649,191.296844 265.768066,191.480286 260.720856,198.056580 
	C256.792694,203.174744 256.923950,208.834045 257.956848,215.042282 
	C257.956848,215.042282 257.614044,215.386292 256.933350,215.187393 
	C250.978607,212.699219 245.142273,209.860275 239.042618,207.801483 
	C228.759064,204.330490 218.962860,206.170410 208.901199,211.613510 
	C210.204559,211.866852 210.660019,212.042435 211.107819,212.024658 
	C212.102371,211.985168 213.118225,211.957626 214.081406,211.734955 
	C222.954178,209.683762 231.253677,211.516220 239.175781,215.532730 
	C242.725311,217.332352 246.123474,219.431915 249.579529,221.414215 
	C264.269104,229.839706 270.753296,243.054886 268.571625,259.861359 
	C266.105560,278.858551 256.327667,292.718597 239.491394,301.817108 
	C251.730881,300.955872 261.356903,294.874329 269.243652,286.079742 
	C282.734772,271.035645 285.914764,253.473694 280.265717,234.141861 
	C297.493164,234.259308 312.040192,229.232300 322.931976,214.981247 
	C322.846191,214.717621 322.760406,214.453995 322.674622,214.190369 
	C322.395844,214.405518 322.117035,214.620651 321.155792,214.989670 
M174.514771,280.898102 
	C158.006699,252.268921 159.622177,224.073914 177.290451,195.601303 
	C159.994812,210.502899 149.346207,241.107986 157.921661,270.476013 
	C166.725906,300.627594 194.608917,325.475800 230.470276,325.615936 
	C249.577606,325.690613 266.425415,320.360748 280.646545,307.373749 
	C262.265564,316.913147 243.008728,320.467621 222.736832,315.685150 
	C202.244629,310.850739 186.224899,299.387634 174.514771,280.898102 
M199.248016,192.748138 
	C226.822235,167.455002 257.224731,164.910645 290.165222,181.087875 
	C276.350281,169.000549 259.976929,163.965286 241.904694,165.243484 
	C210.397278,167.471954 188.368347,183.692886 176.367096,212.761032 
	C166.224579,237.327164 172.637589,267.375610 188.246231,284.878937 
	C172.036377,251.086029 173.646561,220.665268 199.248016,192.748138 
M272.606781,292.126526 
	C257.851501,305.583771 240.125229,309.194336 220.732574,307.303314 
	C243.539551,314.998322 263.597198,310.817627 280.089661,293.351471 
	C291.755890,280.996429 295.757080,266.013000 293.030884,249.209381 
	C291.839722,265.945068 285.542145,280.223083 272.606781,292.126526 
M219.479584,266.143707 
	C211.381958,266.143707 203.284332,266.143707 195.123672,266.143707 
	C196.167435,272.716003 202.425278,276.207489 212.873062,276.452667 
	C223.303207,276.697449 230.372894,273.016785 231.832596,266.143707 
	C227.986618,266.143707 224.227402,266.143707 219.479584,266.143707 
M313.680328,266.143921 
	C311.572723,266.143921 309.465149,266.143921 307.284332,266.143921 
	C308.896423,274.062164 318.254700,277.713867 331.604401,275.990479 
	C339.056335,275.028473 343.753174,271.228546 343.511780,266.143921 
	C333.894867,266.143921 324.267212,266.143921 313.680328,266.143921 
M333.740265,240.822998 
	C334.617310,242.843140 335.494354,244.863281 336.371399,246.883423 
	C336.923920,246.662125 337.476410,246.440826 338.028900,246.219528 
	C334.087952,236.353531 330.147034,226.487534 325.765656,215.518936 
	C320.907990,227.473511 316.577148,238.131653 312.246277,248.789795 
	C312.729889,249.014664 313.213501,249.239532 313.697113,249.464401 
	C317.626678,240.981613 321.556244,232.498810 325.783142,223.374191 
	C328.486542,229.370605 330.921783,234.772232 333.740265,240.822998 
M213.494476,216.864136 
	C209.292160,226.458679 205.089859,236.053223 200.887543,245.647766 
	C201.495819,245.924545 202.104095,246.201340 202.712372,246.478119 
	C206.194382,238.963943 209.676392,231.449783 213.416306,223.379059 
	C217.579269,232.567291 221.492554,241.204437 225.405838,249.841583 
	C225.914124,249.639587 226.422409,249.437592 226.930695,249.235596 
	C222.625824,238.633087 218.320969,228.030579 213.494476,216.864136 
z"/>
<path fill="#F9FAFA" opacity="1.000000" stroke="none" 
	d="
M258.299683,214.698273 
	C256.923950,208.834045 256.792694,203.174744 260.720856,198.056580 
	C265.768066,191.480286 274.290649,191.296844 279.510132,197.709595 
	C285.718994,205.337936 283.975403,215.177689 274.527679,223.319229 
	C291.756012,228.059723 306.972595,224.548706 321.705994,215.089172 
	C322.408325,215.289154 322.560486,215.389618 322.712616,215.490097 
	C312.040192,229.232300 297.493164,234.259308 280.265717,234.141861 
	C285.914764,253.473694 282.734772,271.035645 269.243652,286.079742 
	C261.356903,294.874329 251.730881,300.955872 239.491394,301.817108 
	C256.327667,292.718597 266.105560,278.858551 268.571625,259.861359 
	C270.753296,243.054886 264.269104,229.839706 249.579529,221.414215 
	C246.123474,219.431915 242.725311,217.332352 239.175781,215.532730 
	C231.253677,211.516220 222.954178,209.683762 214.081406,211.734955 
	C213.118225,211.957626 212.102371,211.985168 211.107819,212.024658 
	C210.660019,212.042435 210.204559,211.866852 208.901199,211.613510 
	C218.962860,206.170410 228.759064,204.330490 239.042618,207.801483 
	C245.142273,209.860275 250.978607,212.699219 257.453918,215.487488 
	C258.223907,215.753616 258.473297,215.719666 258.722717,215.685715 
	C258.581696,215.356567 258.440704,215.027420 258.299683,214.698273 
z"/>
<path fill="#F8F9F9" opacity="1.000000" stroke="none" 
	d="
M174.728027,281.195312 
	C186.224899,299.387634 202.244629,310.850739 222.736832,315.685150 
	C243.008728,320.467621 262.265564,316.913147 280.646545,307.373749 
	C266.425415,320.360748 249.577606,325.690613 230.470276,325.615936 
	C194.608917,325.475800 166.725906,300.627594 157.921661,270.476013 
	C149.346207,241.107986 159.994812,210.502899 177.290451,195.601303 
	C159.622177,224.073914 158.006699,252.268921 174.728027,281.195312 
z"/>
<path fill="#F5F6F7" opacity="1.000000" stroke="none" 
	d="
M199.004700,193.005371 
	C173.646561,220.665268 172.036377,251.086029 188.246231,284.878937 
	C172.637589,267.375610 166.224579,237.327164 176.367096,212.761032 
	C188.368347,183.692886 210.397278,167.471954 241.904694,165.243484 
	C259.976929,163.965286 276.350281,169.000549 290.165222,181.087875 
	C257.224731,164.910645 226.822235,167.455002 199.004700,193.005371 
z"/>
<path fill="#F1F2F3" opacity="1.000000" stroke="none" 
	d="
M272.860535,291.879578 
	C285.542145,280.223083 291.839722,265.945068 293.030884,249.209381 
	C295.757080,266.013000 291.755890,280.996429 280.089661,293.351471 
	C263.597198,310.817627 243.539551,314.998322 220.732574,307.303314 
	C240.125229,309.194336 257.851501,305.583771 272.860535,291.879578 
z"/>
<path fill="#F4F5F6" opacity="1.000000" stroke="none" 
	d="
M219.973877,266.143707 
	C224.227402,266.143707 227.986618,266.143707 231.832596,266.143707 
	C230.372894,273.016785 223.303207,276.697449 212.873062,276.452667 
	C202.425278,276.207489 196.167435,272.716003 195.123672,266.143707 
	C203.284332,266.143707 211.381958,266.143707 219.973877,266.143707 
z"/>
<path fill="#F4F5F6" opacity="1.000000" stroke="none" 
	d="
M314.159973,266.143921 
	C324.267212,266.143921 333.894867,266.143921 343.511780,266.143921 
	C343.753174,271.228546 339.056335,275.028473 331.604401,275.990479 
	C318.254700,277.713867 308.896423,274.062164 307.284332,266.143921 
	C309.465149,266.143921 311.572723,266.143921 314.159973,266.143921 
z"/>
<path fill="#E4E7EA" opacity="1.000000" stroke="none" 
	d="
M333.548645,240.498444 
	C330.921783,234.772232 328.486542,229.370605 325.783142,223.374191 
	C321.556244,232.498810 317.626678,240.981613 313.697113,249.464401 
	C313.213501,249.239532 312.729889,249.014664 312.246277,248.789795 
	C316.577148,238.131653 320.907990,227.473511 325.765656,215.518936 
	C330.147034,226.487534 334.087952,236.353531 338.028900,246.219528 
	C337.476410,246.440826 336.923920,246.662125 336.371399,246.883423 
	C335.494354,244.863281 334.617310,242.843140 333.548645,240.498444 
z"/>
<path fill="#E7EAEB" opacity="1.000000" stroke="none" 
	d="
M213.755295,217.146103 
	C218.320969,228.030579 222.625824,238.633087 226.930695,249.235596 
	C226.422409,249.437592 225.914124,249.639587 225.405838,249.841583 
	C221.492554,241.204437 217.579269,232.567291 213.416306,223.379059 
	C209.676392,231.449783 206.194382,238.963943 202.712372,246.478119 
	C202.104095,246.201340 201.495819,245.924545 200.887543,245.647766 
	C205.089859,236.053223 209.292160,226.458679 213.755295,217.146103 
z"/>
<path fill="#F9FAFA" opacity="1.000000" stroke="none" 
	d="
M322.047241,215.012238 
	C322.117035,214.620651 322.395844,214.405518 322.674622,214.190369 
	C322.760406,214.453995 322.846191,214.717621 322.822296,215.235672 
	C322.560486,215.389618 322.408325,215.289154 322.047241,215.012238 
z"/>
<path fill="#042337" opacity="1.000000" stroke="none" 
	d="
M258.128265,214.870270 
	C258.440704,215.027420 258.581696,215.356567 258.722717,215.685715 
	C258.473297,215.719666 258.223907,215.753616 257.794250,215.586929 
	C257.614044,215.386292 257.956848,215.042282 258.128265,214.870270 
z"/>
</svg>