<svg version="1.1" id="Layer_1" xmlns="http://www.w3.org/2000/svg" xmlns:xlink="http://www.w3.org/1999/xlink" x="0px" y="0px"
	 width="100%" viewBox="0 0 500 500" enable-background="new 0 0 500 500" xml:space="preserve">
<path fill="#000000" opacity="1.000000" stroke="none" 
	d="
M261.000000,501.000000 
	C174.000015,501.000000 87.500038,501.000000 1.000046,501.000000 
	C1.000031,334.333405 1.000031,167.666794 1.000015,1.000136 
	C167.666565,1.000091 334.333130,1.000091 500.999756,1.000045 
	C500.999847,167.666519 500.999847,334.333038 500.999939,500.999786 
	C421.166656,501.000000 341.333344,501.000000 261.000000,501.000000 
M81.999725,297.488586 
	C82.509621,299.347961 82.940819,301.233124 83.541275,303.062805 
	C92.102936,329.151337 106.419312,351.770264 125.182800,371.648987 
	C139.934158,387.277100 156.872269,400.115509 176.179382,409.540619 
	C194.682404,418.573181 214.344971,424.589142 234.874939,425.715668 
	C249.454987,426.515717 264.220032,425.134033 278.830963,423.887299 
	C298.162689,422.237793 315.960907,415.037079 332.770203,405.886993 
	C357.205719,392.585541 377.452087,374.087769 393.618927,351.550323 
	C404.766205,336.010376 414.151245,319.231415 418.892609,300.462616 
	C421.811066,288.909729 424.995087,277.162872 425.656708,265.368317 
	C426.446442,251.289673 425.149170,237.023254 423.868774,222.918716 
	C422.536194,208.239868 417.515015,194.397522 411.464081,181.053436 
	C404.005157,164.604324 394.373413,149.451111 381.805481,136.387985 
	C374.072998,128.350784 366.548889,119.858536 357.695099,113.218895 
	C346.560608,104.868958 334.554352,97.451950 322.201935,91.019524 
	C309.538757,84.425285 295.777191,79.769844 281.524902,78.198334 
	C267.297424,76.629547 252.889755,76.122803 238.567108,76.204819 
	C230.028488,76.253723 221.375595,77.764145 212.996124,79.620102 
	C196.823639,83.202110 181.158295,88.642807 167.140808,97.581047 
	C155.983948,104.695221 145.028824,112.332405 134.969696,120.895203 
	C127.129494,127.569130 120.502869,135.772385 113.873444,143.742279 
	C102.050156,157.956238 92.817299,173.747925 86.363770,191.149902 
	C79.045143,210.884644 75.153908,231.162369 76.005463,252.259567 
	C76.304756,259.674561 76.154861,267.156097 77.143120,274.481354 
	C78.150696,281.949829 80.305542,289.263489 81.999725,297.488586 
z"/>
<path fill="#FFFFFF" opacity="1.000000" stroke="none" 
	d="
M81.978897,297.066772 
	C80.305542,289.263489 78.150696,281.949829 77.143120,274.481354 
	C76.154861,267.156097 76.304756,259.674561 76.005463,252.259567 
	C75.153908,231.162369 79.045143,210.884644 86.363770,191.149902 
	C92.817299,173.747925 102.050156,157.956238 113.873444,143.742279 
	C120.502869,135.772385 127.129494,127.569130 134.969696,120.895203 
	C145.028824,112.332405 155.983948,104.695221 167.140808,97.581047 
	C181.158295,88.642807 196.823639,83.202110 212.996124,79.620102 
	C221.375595,77.764145 230.028488,76.253723 238.567108,76.204819 
	C252.889755,76.122803 267.297424,76.629547 281.524902,78.198334 
	C295.777191,79.769844 309.538757,84.425285 322.201935,91.019524 
	C334.554352,97.451950 346.560608,104.868958 357.695099,113.218895 
	C366.548889,119.858536 374.072998,128.350784 381.805481,136.387985 
	C394.373413,149.451111 404.005157,164.604324 411.464081,181.053436 
	C417.515015,194.397522 422.536194,208.239868 423.868774,222.918716 
	C425.149170,237.023254 426.446442,251.289673 425.656708,265.368317 
	C424.995087,277.162872 421.811066,288.909729 418.892609,300.462616 
	C414.151245,319.231415 404.766205,336.010376 393.618927,351.550323 
	C377.452087,374.087769 357.205719,392.585541 332.770203,405.886993 
	C315.960907,415.037079 298.162689,422.237793 278.830963,423.887299 
	C264.220032,425.134033 249.454987,426.515717 234.874939,425.715668 
	C214.344971,424.589142 194.682404,418.573181 176.179382,409.540619 
	C156.872269,400.115509 139.934158,387.277100 125.182800,371.648987 
	C106.419312,351.770264 92.102936,329.151337 83.541275,303.062805 
	C82.940819,301.233124 82.509621,299.347961 81.978897,297.066772 
M200.727798,88.033974 
	C192.482437,91.525703 184.063950,94.662086 176.025467,98.578461 
	C155.228302,108.710899 137.819168,123.169167 122.715851,140.662994 
	C110.788002,154.478775 101.433670,169.776611 93.948433,186.340866 
	C85.025780,206.086014 80.779556,227.003693 80.290550,248.419571 
	C80.013832,260.537994 82.077919,272.823547 84.129074,284.856323 
	C87.716713,305.902557 96.633842,325.068085 108.450851,342.573334 
	C119.245384,358.563873 131.892639,373.069397 147.346268,385.151917 
	C161.109329,395.912659 175.885345,404.670105 192.030533,410.833221 
	C213.573883,419.056946 236.057693,422.736603 259.194763,420.945984 
	C267.791992,420.280670 276.421906,419.443665 284.896149,417.907990 
	C302.283081,414.757294 318.723053,408.502899 333.810181,399.463226 
	C352.362610,388.347321 368.686066,374.554962 382.331696,357.427155 
	C397.287933,338.654297 408.672272,318.289154 415.392303,295.242462 
	C419.614044,280.763885 421.722198,265.907379 421.737946,250.983932 
	C421.749329,240.161591 419.886536,229.235184 417.904907,218.531921 
	C411.915619,186.182556 396.128296,158.710587 374.060333,134.809601 
	C367.094635,127.265358 358.784088,120.912201 350.788727,114.381516 
	C339.637238,105.272835 327.470032,97.631218 313.758087,93.073944 
	C301.293030,88.931084 288.652679,85.155731 275.859863,82.219299 
	C268.274323,80.478127 260.246155,80.182877 252.412888,80.147408 
	C245.418091,80.115723 238.354996,80.952438 231.434540,82.090240 
	C221.423340,83.736168 211.513611,85.999275 200.727798,88.033974 
z"/>
<path fill="#000000" opacity="1.000000" stroke="none" 
	d="
M201.144196,88.016533 
	C211.513611,85.999275 221.423340,83.736168 231.434540,82.090240 
	C238.354996,80.952438 245.418091,80.115723 252.412888,80.147408 
	C260.246155,80.182877 268.274323,80.478127 275.859863,82.219299 
	C288.652679,85.155731 301.293030,88.931084 313.758087,93.073944 
	C327.470032,97.631218 339.637238,105.272835 350.788727,114.381516 
	C358.784088,120.912201 367.094635,127.265358 374.060333,134.809601 
	C396.128296,158.710587 411.915619,186.182556 417.904907,218.531921 
	C419.886536,229.235184 421.749329,240.161591 421.737946,250.983932 
	C421.722198,265.907379 419.614044,280.763885 415.392303,295.242462 
	C408.672272,318.289154 397.287933,338.654297 382.331696,357.427155 
	C368.686066,374.554962 352.362610,388.347321 333.810181,399.463226 
	C318.723053,408.502899 302.283081,414.757294 284.896149,417.907990 
	C276.421906,419.443665 267.791992,420.280670 259.194763,420.945984 
	C236.057693,422.736603 213.573883,419.056946 192.030533,410.833221 
	C175.885345,404.670105 161.109329,395.912659 147.346268,385.151917 
	C131.892639,373.069397 119.245384,358.563873 108.450851,342.573334 
	C96.633842,325.068085 87.716713,305.902557 84.129074,284.856323 
	C82.077919,272.823547 80.013832,260.537994 80.290550,248.419571 
	C80.779556,227.003693 85.025780,206.086014 93.948433,186.340866 
	C101.433670,169.776611 110.788002,154.478775 122.715851,140.662994 
	C137.819168,123.169167 155.228302,108.710899 176.025467,98.578461 
	C184.063950,94.662086 192.482437,91.525703 201.144196,88.016533 
M338.335571,138.268982 
	C338.482269,138.372482 338.628998,138.475998 338.324951,139.123627 
	C337.280670,140.930527 336.236389,142.737427 334.953827,144.956665 
	C336.892334,146.094757 338.913361,147.281296 340.969849,148.488663 
	C344.601837,143.100494 347.971100,138.235641 351.174438,133.263901 
	C352.071014,131.872360 353.454041,129.509506 352.927460,128.726776 
	C351.349640,126.381371 348.929962,125.218430 345.852692,126.966255 
	C342.884155,128.652298 339.696350,129.952301 336.004700,131.707214 
	C336.004700,127.694420 335.112366,124.337074 336.187439,121.820015 
	C338.542908,116.305054 334.460449,115.783066 331.521851,113.841858 
	C328.402039,118.405960 325.410370,122.590607 322.622467,126.906860 
	C318.618317,133.106155 316.004028,132.274551 324.287415,136.962814 
	C326.060272,134.400909 327.833130,131.838989 330.375549,128.165054 
	C329.923645,131.358826 329.757202,133.273087 329.365753,135.140167 
	C328.659546,138.508194 330.345215,140.035477 333.763275,139.035553 
	C335.141418,138.632401 336.537384,138.290070 338.335571,138.268982 
M127.441895,238.033249 
	C127.623764,247.414978 127.496094,256.815430 128.061569,266.173950 
	C128.867752,279.515900 133.020264,292.057465 138.595749,304.106110 
	C147.126923,322.542023 159.938614,337.672607 175.779205,350.145264 
	C186.323334,358.447601 198.267334,364.782959 210.994659,368.805145 
	C228.683441,374.395325 246.884399,376.513092 265.585785,374.149109 
	C279.011932,372.451935 291.845490,369.082062 304.018860,363.423340 
	C321.124481,355.471863 335.343140,343.829895 347.416229,329.244720 
	C363.836700,309.407593 372.472168,286.503723 374.838318,261.256256 
	C376.032257,248.516678 375.067810,235.665726 372.052368,223.050598 
	C366.873840,201.386276 357.009674,182.265228 341.608978,166.139175 
	C329.596649,153.561127 315.827545,143.565018 299.612518,136.775528 
	C286.631042,131.339996 273.182037,128.184509 259.345642,127.148209 
	C245.763412,126.130951 232.214706,127.402603 218.915436,130.942444 
	C199.346146,136.151138 182.155258,145.522797 167.250320,159.209595 
	C157.414429,168.241623 148.919815,178.402908 142.520828,190.080460 
	C134.481079,204.752258 128.893478,220.320419 127.441895,238.033249 
M281.903778,114.650284 
	C282.940491,115.152565 284.717560,115.472000 284.894073,116.186737 
	C286.062286,120.916443 289.451569,122.261932 294.269226,122.464317 
	C293.555420,119.747925 292.847870,117.055458 292.140350,114.362991 
	C292.574432,114.552864 293.008514,114.742729 293.442596,114.932594 
	C294.954346,111.960274 297.738647,108.956718 297.666626,106.023270 
	C297.569214,102.053413 294.862244,98.576180 290.207397,97.649094 
	C287.538116,97.117447 284.798950,96.634903 282.303406,95.612465 
	C279.510468,94.468178 278.544769,95.127205 277.935577,98.012405 
	C276.550415,104.572517 274.822144,111.060181 273.199127,117.717491 
	C275.781921,118.200012 278.236267,118.658539 280.714569,119.121536 
	C280.957489,117.438812 281.119934,116.313683 281.903778,114.650284 
M401.301758,201.972900 
	C402.136688,201.484375 402.971649,200.995850 403.875732,200.466858 
	C402.824463,198.237534 401.768585,195.998459 400.674194,193.677704 
	C397.942230,195.020660 395.801025,196.073196 393.593048,197.158585 
	C392.415710,194.806000 391.336273,192.649033 390.224060,190.426620 
	C392.781586,189.296967 395.362732,188.156891 397.909058,187.032181 
	C396.794373,184.487732 395.854095,182.341400 394.853851,180.058212 
	C387.707916,183.254852 380.779083,186.354355 373.488129,189.615860 
	C374.605225,192.023529 375.535400,194.028275 376.503815,196.115448 
	C379.313995,195.032272 381.935944,194.021652 384.491211,193.036743 
	C385.393890,195.357010 386.192932,197.410843 386.979919,199.433685 
	C379.184937,204.418503 379.184937,204.418503 383.025116,209.945206 
	C388.862305,207.310776 394.699493,204.676346 401.301758,201.972900 
M116.870834,182.011459 
	C105.791199,180.425949 100.250328,187.667160 100.903122,196.901825 
	C101.591606,206.641373 111.924278,209.291962 118.224724,206.137878 
	C126.724998,201.882538 128.761612,187.518295 116.870834,182.011459 
M211.431015,119.968796 
	C207.228043,117.418854 203.025070,114.868912 198.783707,112.295670 
	C200.293137,108.130135 201.681442,104.298866 203.149155,100.248482 
	C193.685760,99.631287 194.449646,107.890999 191.559143,112.716782 
	C190.487701,109.990509 189.472595,107.407585 188.469681,104.855644 
	C185.946426,105.954979 183.947479,106.825890 181.646591,107.828339 
	C183.847763,113.497177 185.892609,119.040230 188.148499,124.496017 
	C190.450256,130.062759 192.182205,130.317154 196.581772,126.410316 
	C196.040436,123.944633 195.551498,121.717667 195.062576,119.490700 
	C204.133621,124.711380 205.842422,124.860344 211.431015,119.968796 
M378.007446,158.496140 
	C372.217194,162.482681 366.426910,166.469238 360.561310,170.507645 
	C364.378662,176.081924 367.802185,181.081070 371.310730,186.204422 
	C373.202087,184.758987 374.716766,183.601410 376.269928,182.414444 
	C374.083618,179.102585 372.134918,176.150696 370.186249,173.198822 
	C370.623932,172.780289 371.061646,172.361740 371.499359,171.943207 
	C372.858307,173.316696 374.487885,174.517090 375.505798,176.108673 
	C376.703247,177.980957 377.417938,180.239090 380.177551,178.294861 
	C382.700317,176.517532 382.310883,174.760132 380.324493,172.588913 
	C379.077637,171.226105 378.580200,169.177673 377.746552,167.436829 
	C378.194000,167.162231 378.641449,166.887634 379.088898,166.613022 
	C381.335602,169.735092 383.582275,172.857162 385.936401,176.128540 
	C387.353455,175.120880 388.735229,174.138290 390.628235,172.792175 
	C387.337006,167.666687 384.185852,162.688049 380.894012,157.804230 
	C380.689362,157.500626 379.379822,157.941742 378.007446,158.496140 
M300.033112,117.727058 
	C299.320160,119.838737 298.607239,121.950424 297.782379,124.393608 
	C303.503784,126.861252 309.119202,129.283188 314.729706,131.703003 
	C318.082703,126.649475 318.074524,126.667641 312.716217,124.252205 
	C310.736664,123.359848 308.805756,122.359604 305.882690,120.936241 
	C310.858673,118.224045 313.506683,122.082779 317.130829,122.791313 
	C317.840729,121.171417 318.588806,119.464355 319.411560,117.586861 
	C316.105164,116.067215 313.240540,114.750618 310.347260,113.420845 
	C310.695953,112.773277 311.124115,111.978218 311.420624,111.427605 
	C313.384216,112.152351 315.377838,112.511681 316.934662,113.535362 
	C321.134491,116.296913 323.128113,114.997490 323.623383,109.768684 
	C318.196198,107.469131 312.499847,105.055519 306.904968,102.684914 
	C304.626831,107.744377 302.532562,112.395401 300.033112,117.727058 
M138.066406,137.415466 
	C134.328079,141.687805 130.589767,145.960159 126.720886,150.381729 
	C132.615540,155.760590 138.301315,160.948868 143.113113,165.339615 
	C148.191315,161.230865 153.027695,157.317780 158.478302,152.907715 
	C155.412735,151.012222 152.968307,148.787109 152.322662,149.223480 
	C149.317703,151.254410 146.810379,154.021622 143.891876,156.742798 
	C141.872696,151.854233 147.486938,150.553009 148.776642,147.158646 
	C147.496643,146.021515 146.192169,144.862656 143.487900,142.460236 
	C141.572861,145.410736 139.868607,148.036484 138.164352,150.662247 
	C137.547455,150.119522 136.930542,149.576813 136.313644,149.034103 
	C138.798111,146.129578 141.282562,143.225067 144.151855,139.870667 
	C142.303070,138.907593 140.502777,137.969772 138.066406,137.415466 
M344.522217,151.001282 
	C345.816864,153.159729 347.111542,155.318192 348.579712,157.765961 
	C350.718109,155.741821 352.133820,154.401749 353.576080,153.036560 
	C354.092316,153.663177 354.554535,154.135956 354.915497,154.676361 
	C357.544739,158.613098 364.592285,160.604111 368.080963,158.377228 
	C372.303802,155.681702 373.514130,150.892517 370.318695,145.986069 
	C367.809113,142.132721 364.294952,138.933609 361.338867,135.571030 
	C355.447083,140.951538 350.230774,145.715210 344.522217,151.001282 
M255.211533,115.954979 
	C255.639755,114.000900 256.067993,112.046822 256.552307,109.836807 
	C257.268433,110.191559 257.800842,110.587486 258.393860,110.728256 
	C263.307739,111.894745 269.222565,108.784409 269.988983,104.671761 
	C271.154785,98.416016 268.043243,93.557228 262.189178,93.066505 
	C258.264618,92.737526 254.290131,93.003922 249.673737,93.003922 
	C249.673737,100.791977 249.673737,108.228943 249.673737,115.997017 
	C251.051727,115.997017 252.671158,115.997017 255.211533,115.954979 
M137.979996,175.092789 
	C139.402908,171.365906 139.704819,167.212357 136.232361,165.018021 
	C129.832153,160.973572 125.976143,166.937103 121.081696,169.855667 
	C121.952965,167.350067 123.722771,165.641571 124.741615,163.564667 
	C125.321106,162.383362 125.139984,160.277740 124.402603,159.207794 
	C123.958344,158.563171 121.242294,158.527817 120.497849,159.228622 
	C118.397911,161.205475 116.514542,163.542908 115.051651,166.035126 
	C112.898758,169.702850 113.343681,173.658813 116.812134,176.042770 
	C119.952614,178.201309 123.653389,177.500763 126.646912,174.836899 
	C128.175980,173.476212 129.632828,172.034393 131.761154,170.026596 
	C132.165802,175.975693 127.465714,176.902679 124.975075,179.630203 
	C126.263855,181.273224 127.433418,182.764267 129.234680,185.060623 
	C132.345657,181.669113 135.024246,178.748962 137.979996,175.092789 
M377.007324,307.635895 
	C382.473663,311.609802 395.937347,310.996368 397.869568,306.732117 
	C394.954285,304.363617 392.049377,302.003540 388.642090,299.235291 
	C400.618011,298.604248 400.618011,298.604248 401.833588,295.452209 
	C396.767700,291.290924 391.693024,287.122345 386.219116,282.625916 
	C384.233978,290.590088 392.555664,290.310852 394.066833,294.534790 
	C390.523499,294.534790 386.560913,294.534790 381.892426,294.534790 
	C379.406921,301.248901 388.658600,301.136932 389.649078,306.468140 
	C386.307648,305.961456 383.283447,305.319092 380.232300,305.142517 
	C379.200928,305.082855 378.101349,306.202576 377.007324,307.635895 
M232.997940,400.275391 
	C233.900528,394.959442 234.803131,389.643524 235.723145,384.224915 
	C228.228241,382.397186 228.050171,390.865692 223.427277,393.127869 
	C222.561691,389.564087 221.931839,386.236298 220.866898,383.054138 
	C220.565063,382.152222 219.053757,381.313293 217.982635,381.135620 
	C217.314133,381.024689 215.884430,382.091766 215.731628,382.825104 
	C214.559708,388.449585 213.617310,394.121887 212.603622,399.779358 
	C213.183914,399.960480 213.764206,400.141602 214.344513,400.322723 
	C218.762329,398.123749 217.046829,393.061493 218.356873,389.419708 
	C219.612671,393.026367 220.868484,396.633026 222.471008,401.235443 
	C225.341400,397.909882 227.396759,395.528625 230.082321,392.417206 
	C229.590118,396.530426 229.218918,399.632538 228.677063,404.160797 
	C230.855286,402.628967 231.912888,401.885223 232.997940,400.275391 
M108.960945,301.554138 
	C111.850578,300.421875 114.740204,299.289612 117.472511,298.218994 
	C118.970566,301.936340 120.327492,305.303467 121.826012,309.021942 
	C118.291527,310.799774 114.650520,312.480804 111.187790,314.471924 
	C110.246849,315.013000 109.843681,316.489349 109.193710,317.536438 
	C110.384476,317.698120 111.771698,318.334076 112.730873,317.936737 
	C116.280624,316.466309 119.689087,314.654877 123.121460,312.985779 
	C127.570168,317.000092 127.570168,317.000092 129.239273,315.771118 
	C125.775093,307.326050 122.418190,299.010468 118.938133,290.746704 
	C118.006523,288.534485 116.754395,286.280670 114.254135,289.297852 
	C114.748550,290.821716 115.220192,292.275421 115.836227,294.174164 
	C111.193649,296.002899 106.529060,297.840271 101.873466,299.674133 
	C102.698051,305.250214 106.033463,301.817230 108.960945,301.554138 
M145.985443,359.526672 
	C143.498047,362.142059 144.289124,363.865723 147.329803,365.107971 
	C149.800171,362.037781 152.143005,359.126129 155.224991,355.295868 
	C152.821167,363.091583 153.649414,370.067841 157.056183,372.839417 
	C161.002182,368.052795 164.950256,363.263672 168.953247,358.407898 
	C168.013748,357.542267 167.069519,356.672241 165.836197,355.535889 
	C163.224335,358.723053 160.821167,361.655548 158.387558,364.625214 
	C156.109940,359.291351 162.752060,352.530762 155.944260,347.724548 
	C152.539230,351.786194 149.511246,355.398132 145.985443,359.526672 
M348.405121,367.936584 
	C348.192322,366.869629 347.517365,365.078308 347.849945,364.866119 
	C349.036560,364.109039 350.541046,363.677795 351.970276,363.512451 
	C354.309296,363.241852 356.683655,363.276306 359.043091,363.182098 
	C359.018127,362.623108 358.993164,362.064117 358.968231,361.505127 
	C356.707855,360.900879 354.447479,360.296661 352.633270,359.811676 
	C353.006714,355.619843 352.324066,352.345306 348.143768,350.604370 
	C344.210144,348.966156 339.279236,351.856354 335.061279,358.320404 
	C339.010651,363.010315 342.949921,367.688171 347.878540,373.540924 
	C348.432770,370.897339 348.692017,369.660828 348.405121,367.936584 
M274.999939,395.246521 
	C274.972076,385.294525 271.029541,383.144226 256.766602,385.633545 
	C257.253967,391.603424 257.744812,397.615997 258.235168,403.622314 
	C268.451843,403.773682 272.890747,402.731934 274.999939,395.246521 
M324.708466,381.179993 
	C326.926788,381.451630 329.168823,382.068329 331.358154,381.917969 
	C335.106323,381.660553 338.694824,377.541992 338.999390,373.691986 
	C339.413574,368.456726 337.122406,364.188324 333.323944,363.118744 
	C328.265625,361.694427 322.581055,363.876617 320.400146,368.079956 
	C317.774109,373.141235 318.732666,376.664520 324.708466,381.179993 
M133.008652,343.486389 
	C131.653366,344.720154 130.298096,345.953918 128.731140,347.380371 
	C130.099838,348.501923 131.157715,349.368805 132.108551,350.147949 
	C133.670059,348.844421 134.902908,347.815216 136.135742,346.786041 
	C136.659973,346.849792 137.184204,346.913513 137.708420,346.977264 
	C137.804245,348.854370 137.897873,350.731628 137.996490,352.608582 
	C138.106064,354.694000 138.220200,356.779236 138.332352,358.864532 
	C138.911957,358.880096 139.491562,358.895660 140.071167,358.911194 
	C140.381943,357.754944 140.412399,356.394989 141.069641,355.490448 
	C142.038712,354.156616 143.374298,353.043304 144.698547,352.024170 
	C146.613251,350.550598 149.681625,349.622528 150.365936,347.764832 
	C151.088242,345.804016 150.086578,342.747284 148.929764,340.676788 
	C147.608932,338.312744 145.286133,336.508545 143.298309,334.352112 
	C139.642563,337.580017 136.578674,340.285309 133.008652,343.486389 
M127.489410,320.000000 
	C122.442162,319.777435 119.595871,322.801849 118.100143,327.031342 
	C116.844414,330.582184 120.060211,337.015045 123.421143,338.799835 
	C127.656853,341.049194 131.601486,340.367035 135.109467,336.287018 
	C137.167862,333.892944 138.780396,331.357788 137.308548,327.596527 
	C135.592194,323.210419 132.999496,320.545013 127.489410,320.000000 
M383.288879,316.002563 
	C380.726044,315.671143 378.169189,315.168549 375.597900,315.078094 
	C374.244690,315.030457 372.134949,315.309021 371.682220,316.149109 
	C371.102783,317.224457 371.372833,319.327301 372.105957,320.442108 
	C375.362152,325.393860 378.914764,330.150665 382.360199,334.977966 
	C382.874786,334.873291 383.389343,334.768585 383.903931,334.663910 
	C383.644073,332.940002 383.318634,331.222565 383.148682,329.489838 
	C383.044495,328.427368 382.824310,327.156769 383.271057,326.300293 
	C384.698547,323.563385 385.477966,320.000366 390.087067,320.805573 
	C390.967926,320.959473 392.228119,318.941956 393.634064,317.626038 
	C389.900146,316.996765 387.047058,316.515930 383.288879,316.002563 
M173.351852,370.033356 
	C173.177689,368.797272 173.003525,367.561218 172.757889,365.817871 
	C181.673782,370.687592 181.673782,370.687592 183.713058,367.989899 
	C180.372086,365.748871 177.098236,363.415192 173.646881,361.382935 
	C173.115448,361.070007 171.357819,361.872528 170.864761,362.619537 
	C167.857925,367.175049 165.052658,371.863617 161.897919,376.964111 
	C165.938126,379.378021 170.038818,381.828094 174.237976,384.337006 
	C174.797943,383.296234 175.627792,382.134155 175.473404,381.983978 
	C172.988068,379.566528 170.377487,377.277832 167.527710,374.719635 
	C172.252869,370.986328 174.005539,377.443451 177.596802,376.828308 
	C178.043106,375.858459 178.561050,374.732910 179.012192,373.752502 
	C177.185486,372.562134 175.579712,371.515717 173.351852,370.033356 
M106.657242,287.029022 
	C108.866821,285.422455 111.268730,284.013580 113.206856,282.127991 
	C114.212860,281.149231 114.932236,279.255341 114.750992,277.914124 
	C114.645615,277.134369 112.562088,276.301697 111.262894,276.058960 
	C105.624695,275.005554 99.947601,274.160339 94.284637,273.239441 
	C94.028847,273.563507 93.773048,273.887573 93.517258,274.211639 
	C95.412033,275.840515 97.306816,277.469391 99.201599,279.098297 
	C100.187660,281.378845 100.404587,284.351013 100.104019,287.269897 
	C99.931435,288.945953 98.919647,290.535583 98.285645,292.164093 
	C98.770142,292.379028 99.254639,292.593994 99.739143,292.808929 
	C101.841568,291.019043 103.943993,289.229187 106.657242,287.029022 
M302.481964,387.988800 
	C301.523346,386.696014 300.803497,385.069733 299.557831,384.177887 
	C296.710876,382.139404 295.426239,376.578186 290.365479,379.426910 
	C289.531921,386.407349 288.730377,393.119904 287.928833,399.832458 
	C288.482483,400.059021 289.036133,400.285583 289.589783,400.512146 
	C290.716278,398.452728 291.842773,396.393311 293.104370,394.086945 
	C296.281036,393.729431 300.246826,390.233917 303.822662,394.849548 
	C304.040253,395.130371 306.064392,394.011627 308.666260,392.983856 
	C306.099518,390.951782 304.549133,389.724396 302.481964,387.988800 
M245.540436,391.999725 
	C241.646881,392.085541 242.918121,390.001770 243.476807,388.170654 
	C246.721191,388.547546 249.589340,388.880737 252.698471,389.241913 
	C252.698471,387.553284 252.698471,386.376129 252.698471,385.000793 
	C249.089294,385.000793 245.750671,384.771301 242.473343,385.119263 
	C241.245758,385.249603 239.220001,386.668793 239.165863,387.594421 
	C238.849731,392.998138 239.010895,398.429779 239.010895,403.721252 
	C244.054947,403.721252 248.482895,403.721252 252.852539,403.721252 
	C253.824081,397.989227 249.642761,400.232025 247.468765,400.082611 
	C243.098801,399.782318 243.085388,399.977600 243.589249,395.900452 
	C246.325912,395.900452 249.106384,395.900452 252.062332,395.900452 
	C251.755402,391.800903 249.010330,392.029175 245.540436,391.999725 
M152.476364,127.987541 
	C147.933807,125.891426 148.210175,130.924850 145.984238,131.852188 
	C148.982452,135.783783 151.739578,139.370987 154.466354,142.981110 
	C159.206970,149.257446 159.832855,149.420227 165.685730,145.663162 
	C165.883942,145.535919 165.881180,145.095581 166.020523,144.644348 
	C161.712280,139.302032 157.353622,133.897202 152.476364,127.987541 
M185.000000,374.783081 
	C184.694305,379.246674 184.388596,383.710266 184.030991,388.931732 
	C184.101303,388.964417 185.289047,389.516785 186.476776,390.069153 
	C186.237823,389.625061 185.998871,389.180939 185.759903,388.736816 
	C190.482849,384.454620 195.205811,380.172424 199.928757,375.890228 
	C199.886703,375.489838 199.844650,375.089417 199.802612,374.689026 
	C198.181076,374.975494 196.451019,374.999146 194.964691,375.613007 
	C192.982651,376.431580 191.190094,377.708954 189.152985,378.883301 
	C188.671097,370.124084 188.130615,369.185242 184.213440,369.685242 
	C184.476501,371.086792 184.738220,372.481293 185.000000,374.783081 
M312.044983,376.429871 
	C313.568329,375.193787 315.091644,373.957733 317.414948,372.072540 
	C315.803894,371.385468 314.245758,370.082397 313.319489,370.435760 
	C309.162720,372.021454 305.185608,374.078156 301.166992,375.954041 
	C302.730621,381.422119 305.457977,377.743347 307.913788,377.234039 
	C310.006348,381.799561 312.121429,386.414215 314.132690,390.802338 
	C315.665649,390.285126 316.837463,389.889801 318.022583,389.489960 
	C316.147278,385.227020 314.344513,381.128937 312.044983,376.429871 
M402.264771,255.970917 
	C405.488190,253.420883 406.246399,249.934006 403.385498,247.289825 
	C401.761841,245.789185 398.002075,245.340988 395.749115,246.079926 
	C392.503296,247.144485 391.986481,250.906021 393.386993,253.586044 
	C394.923340,256.526031 397.737610,258.621826 402.264771,255.970917 
M97.028214,249.800705 
	C96.789703,254.084229 98.899651,256.943054 103.049934,256.773682 
	C105.077324,256.690979 107.947372,254.643631 108.770134,252.758469 
	C110.130981,249.640457 108.505211,246.292679 105.219818,245.231125 
	C101.914619,244.163147 98.849983,245.441879 97.028214,249.800705 
M374.552185,344.966034 
	C376.744598,342.378845 378.936981,339.791626 381.311066,336.990051 
	C380.324554,335.920929 379.456177,334.979797 378.447021,333.886108 
	C376.789398,335.995026 375.209198,338.005402 373.463318,340.226532 
	C370.375214,337.745605 367.354431,335.570953 364.639069,333.065308 
	C362.006653,330.636200 360.380310,331.289948 358.692230,334.419708 
	C363.896667,338.163055 368.961273,341.805878 374.552185,344.966034 
M277.999969,389.490753 
	C279.960754,393.151917 277.323151,399.183075 283.637146,400.729187 
	C283.251556,395.130005 282.257935,389.789551 280.910370,384.539917 
	C280.607300,383.359314 279.068329,382.496002 278.098328,381.486633 
	C277.642029,381.856262 277.185760,382.225891 276.729462,382.595520 
	C277.152069,384.601746 277.574646,386.608002 277.999969,389.490753 
M212.005127,116.517410 
	C213.031387,119.630196 214.300934,123.008842 218.217148,119.979050 
	C219.448639,119.026299 220.126495,115.006058 219.284225,114.164261 
	C216.724045,111.605438 213.974228,112.811096 212.005127,116.517410 
z"/>
<path fill="#F9FAFA" opacity="1.000000" stroke="none" 
	d="
M127.693634,237.642029 
	C128.893478,220.320419 134.481079,204.752258 142.520828,190.080460 
	C148.919815,178.402908 157.414429,168.241623 167.250320,159.209595 
	C182.155258,145.522797 199.346146,136.151138 218.915436,130.942444 
	C232.214706,127.402603 245.763412,126.130951 259.345642,127.148209 
	C273.182037,128.184509 286.631042,131.339996 299.612518,136.775528 
	C315.827545,143.565018 329.596649,153.561127 341.608978,166.139175 
	C357.009674,182.265228 366.873840,201.386276 372.052368,223.050598 
	C375.067810,235.665726 376.032257,248.516678 374.838318,261.256256 
	C372.472168,286.503723 363.836700,309.407593 347.416229,329.244720 
	C335.343140,343.829895 321.124481,355.471863 304.018860,363.423340 
	C291.845490,369.082062 279.011932,372.451935 265.585785,374.149109 
	C246.884399,376.513092 228.683441,374.395325 210.994659,368.805145 
	C198.267334,364.782959 186.323334,358.447601 175.779205,350.145264 
	C159.938614,337.672607 147.126923,322.542023 138.595749,304.106110 
	C133.020264,292.057465 128.867752,279.515900 128.061569,266.173950 
	C127.496094,256.815430 127.623764,247.414978 127.693634,237.642029 
M364.036255,289.482117 
	C370.814148,270.526215 371.955475,250.951996 368.707092,231.353790 
	C357.578125,164.209915 292.054749,116.765839 219.721008,135.729889 
	C160.694077,151.205261 119.538757,211.092606 134.802521,278.277008 
	C147.549576,334.383942 202.203049,380.365509 271.364777,368.583160 
	C316.884369,360.828491 347.275818,333.190094 364.036255,289.482117 
z"/>
<path fill="#FFFFFF" opacity="1.000000" stroke="none" 
	d="
M337.925232,137.920074 
	C336.537384,138.290070 335.141418,138.632401 333.763275,139.035553 
	C330.345215,140.035477 328.659546,138.508194 329.365753,135.140167 
	C329.757202,133.273087 329.923645,131.358826 330.375549,128.165054 
	C327.833130,131.838989 326.060272,134.400909 324.284943,136.957550 
	C316.004028,132.274551 318.618317,133.106155 322.622467,126.906860 
	C325.410370,122.590607 328.402039,118.405960 331.521851,113.841858 
	C334.460449,115.783066 338.542908,116.305054 336.187439,121.820015 
	C335.112366,124.337074 336.004700,127.694420 336.004700,131.707214 
	C339.696350,129.952301 342.884155,128.652298 345.852692,126.966255 
	C348.929962,125.218430 351.349640,126.381371 352.927460,128.726776 
	C353.454041,129.509506 352.071014,131.872360 351.174438,133.263901 
	C347.971100,138.235641 344.601837,143.100494 340.969849,148.488663 
	C338.913361,147.281296 336.892334,146.094757 334.953827,144.956665 
	C336.236389,142.737427 337.280670,140.930527 338.773132,138.660339 
	C339.352905,137.861740 339.484528,137.526443 339.616150,137.191147 
	C339.052521,137.434128 338.488861,137.677094 337.925232,137.920074 
z"/>
<path fill="#FFFFFF" opacity="1.000000" stroke="none" 
	d="
M281.593079,114.919418 
	C281.119934,116.313683 280.957489,117.438812 280.714569,119.121536 
	C278.236267,118.658539 275.781921,118.200012 273.199127,117.717491 
	C274.822144,111.060181 276.550415,104.572517 277.935577,98.012405 
	C278.544769,95.127205 279.510468,94.468178 282.303406,95.612465 
	C284.798950,96.634903 287.538116,97.117447 290.207397,97.649094 
	C294.862244,98.576180 297.569214,102.053413 297.666626,106.023270 
	C297.738647,108.956718 294.954346,111.960274 293.442596,114.932594 
	C293.008514,114.742729 292.574432,114.552864 292.140350,114.362991 
	C292.847870,117.055458 293.555420,119.747925 294.269226,122.464317 
	C289.451569,122.261932 286.062286,120.916443 284.894073,116.186737 
	C284.717560,115.472000 282.940491,115.152565 281.593079,114.919418 
M284.004303,104.403152 
	C283.846863,105.454155 283.689392,106.505165 283.523895,107.609932 
	C284.428314,107.992599 285.587524,108.872231 286.732391,108.853958 
	C287.798035,108.836952 289.511719,108.050690 289.733643,107.263138 
	C289.996857,106.329002 289.267120,104.465660 288.430847,104.025925 
	C287.226898,103.392853 285.538910,103.680321 284.004303,104.403152 
z"/>
<path fill="#FFFFFF" opacity="1.000000" stroke="none" 
	d="
M400.919220,202.007416 
	C394.699493,204.676346 388.862305,207.310776 383.026611,209.948486 
	C379.184937,204.418503 379.184937,204.418503 386.979919,199.433685 
	C386.192932,197.410843 385.393890,195.357010 384.491211,193.036743 
	C381.935944,194.021652 379.313995,195.032272 376.503815,196.115448 
	C375.535400,194.028275 374.605225,192.023529 373.488129,189.615860 
	C380.779083,186.354355 387.707916,183.254852 394.853851,180.058212 
	C395.854095,182.341400 396.794373,184.487732 397.909058,187.032181 
	C395.362732,188.156891 392.781586,189.296967 390.224060,190.426620 
	C391.336273,192.649033 392.415710,194.806000 393.593048,197.158585 
	C395.801025,196.073196 397.942230,195.020660 400.674194,193.677704 
	C401.768585,195.998459 402.824463,198.237534 403.875732,200.466858 
	C402.971649,200.995850 402.136688,201.484375 400.919220,202.007416 
z"/>
<path fill="#FFFFFF" opacity="1.000000" stroke="none" 
	d="
M117.279312,182.092041 
	C128.761612,187.518295 126.724998,201.882538 118.224724,206.137878 
	C111.924278,209.291962 101.591606,206.641373 100.903122,196.901825 
	C100.250328,187.667160 105.791199,180.425949 117.279312,182.092041 
M118.548203,193.033096 
	C117.035255,189.399231 113.851875,187.987991 110.695381,189.392715 
	C108.962555,190.163879 106.918053,194.216553 107.565933,195.459915 
	C108.646950,197.534500 111.966743,199.892685 113.986938,199.606964 
	C115.886734,199.338257 117.324852,195.805252 118.548203,193.033096 
z"/>
<path fill="#FFFFFF" opacity="1.000000" stroke="none" 
	d="
M211.655029,120.269333 
	C205.842422,124.860344 204.133621,124.711380 195.062576,119.490700 
	C195.551498,121.717667 196.040436,123.944633 196.581772,126.410316 
	C192.182205,130.317154 190.450256,130.062759 188.148499,124.496017 
	C185.892609,119.040230 183.847763,113.497177 181.646591,107.828339 
	C183.947479,106.825890 185.946426,105.954979 188.469681,104.855644 
	C189.472595,107.407585 190.487701,109.990509 191.559143,112.716782 
	C194.449646,107.890999 193.685760,99.631287 203.149155,100.248482 
	C201.681442,104.298866 200.293137,108.130135 198.783707,112.295670 
	C203.025070,114.868912 207.228043,117.418854 211.655029,120.269333 
z"/>
<path fill="#FFFFFF" opacity="1.000000" stroke="none" 
	d="
M378.295898,158.266266 
	C379.379822,157.941742 380.689362,157.500626 380.894012,157.804230 
	C384.185852,162.688049 387.337006,167.666687 390.628235,172.792175 
	C388.735229,174.138290 387.353455,175.120880 385.936401,176.128540 
	C383.582275,172.857162 381.335602,169.735092 379.088898,166.613022 
	C378.641449,166.887634 378.194000,167.162231 377.746552,167.436829 
	C378.580200,169.177673 379.077637,171.226105 380.324493,172.588913 
	C382.310883,174.760132 382.700317,176.517532 380.177551,178.294861 
	C377.417938,180.239090 376.703247,177.980957 375.505798,176.108673 
	C374.487885,174.517090 372.858307,173.316696 371.499359,171.943207 
	C371.061646,172.361740 370.623932,172.780289 370.186249,173.198822 
	C372.134918,176.150696 374.083618,179.102585 376.269928,182.414444 
	C374.716766,183.601410 373.202087,184.758987 371.310730,186.204422 
	C367.802185,181.081070 364.378662,176.081924 360.561310,170.507645 
	C366.426910,166.469238 372.217194,162.482681 378.295898,158.266266 
z"/>
<path fill="#FFFFFF" opacity="1.000000" stroke="none" 
	d="
M300.235718,117.386742 
	C302.532562,112.395401 304.626831,107.744377 306.904968,102.684914 
	C312.499847,105.055519 318.196198,107.469131 323.623383,109.768684 
	C323.128113,114.997490 321.134491,116.296913 316.934662,113.535362 
	C315.377838,112.511681 313.384216,112.152351 311.420624,111.427605 
	C311.124115,111.978218 310.695953,112.773277 310.347260,113.420845 
	C313.240540,114.750618 316.105164,116.067215 319.411560,117.586861 
	C318.588806,119.464355 317.840729,121.171417 317.130829,122.791313 
	C313.506683,122.082779 310.858673,118.224045 305.882690,120.936241 
	C308.805756,122.359604 310.736664,123.359848 312.716217,124.252205 
	C318.074524,126.667641 318.082703,126.649475 314.729706,131.703003 
	C309.119202,129.283188 303.503784,126.861252 297.782379,124.393608 
	C298.607239,121.950424 299.320160,119.838737 300.235718,117.386742 
z"/>
<path fill="#FFFFFF" opacity="1.000000" stroke="none" 
	d="
M138.384445,137.223724 
	C140.502777,137.969772 142.303070,138.907593 144.151855,139.870667 
	C141.282562,143.225067 138.798111,146.129578 136.313644,149.034103 
	C136.930542,149.576813 137.547455,150.119522 138.164352,150.662247 
	C139.868607,148.036484 141.572861,145.410736 143.487900,142.460236 
	C146.192169,144.862656 147.496643,146.021515 148.776642,147.158646 
	C147.486938,150.553009 141.872696,151.854233 143.891876,156.742798 
	C146.810379,154.021622 149.317703,151.254410 152.322662,149.223480 
	C152.968307,148.787109 155.412735,151.012222 158.478302,152.907715 
	C153.027695,157.317780 148.191315,161.230865 143.113113,165.339615 
	C138.301315,160.948868 132.615540,155.760590 126.720886,150.381729 
	C130.589767,145.960159 134.328079,141.687805 138.384445,137.223724 
z"/>
<path fill="#FFFFFF" opacity="1.000000" stroke="none" 
	d="
M344.768311,150.740082 
	C350.230774,145.715210 355.447083,140.951538 361.338867,135.571030 
	C364.294952,138.933609 367.809113,142.132721 370.318695,145.986069 
	C373.514130,150.892517 372.303802,155.681702 368.080963,158.377228 
	C364.592285,160.604111 357.544739,158.613098 354.915497,154.676361 
	C354.554535,154.135956 354.092316,153.663177 353.576080,153.036560 
	C352.133820,154.401749 350.718109,155.741821 348.579712,157.765961 
	C347.111542,155.318192 345.816864,153.159729 344.768311,150.740082 
M364.975311,150.195923 
	C364.254547,148.708496 363.533783,147.221054 362.667419,145.433090 
	C360.645111,146.717789 359.233948,147.614258 357.305817,148.839142 
	C359.908478,150.664917 361.024017,154.922760 364.975311,150.195923 
z"/>
<path fill="#FFFFFF" opacity="1.000000" stroke="none" 
	d="
M254.751068,115.975998 
	C252.671158,115.997017 251.051727,115.997017 249.673737,115.997017 
	C249.673737,108.228943 249.673737,100.791977 249.673737,93.003922 
	C254.290131,93.003922 258.264618,92.737526 262.189178,93.066505 
	C268.043243,93.557228 271.154785,98.416016 269.988983,104.671761 
	C269.222565,108.784409 263.307739,111.894745 258.393860,110.728256 
	C257.800842,110.587486 257.268433,110.191559 256.552307,109.836807 
	C256.067993,112.046822 255.639755,114.000900 254.751068,115.975998 
M261.471680,99.939468 
	C260.079315,99.591042 258.686951,99.242615 256.086823,98.591957 
	C257.171021,101.484215 257.695984,103.223679 258.539673,104.791634 
	C258.675568,105.044174 260.758026,104.817589 261.028625,104.318260 
	C261.722198,103.038399 261.902374,101.480293 261.471680,99.939468 
z"/>
<path fill="#FFFFFF" opacity="1.000000" stroke="none" 
	d="
M137.841431,175.460815 
	C135.024246,178.748962 132.345657,181.669113 129.234680,185.060623 
	C127.433418,182.764267 126.263855,181.273224 124.975075,179.630203 
	C127.465714,176.902679 132.165802,175.975693 131.761154,170.026596 
	C129.632828,172.034393 128.175980,173.476212 126.646912,174.836899 
	C123.653389,177.500763 119.952614,178.201309 116.812134,176.042770 
	C113.343681,173.658813 112.898758,169.702850 115.051651,166.035126 
	C116.514542,163.542908 118.397911,161.205475 120.497849,159.228622 
	C121.242294,158.527817 123.958344,158.563171 124.402603,159.207794 
	C125.139984,160.277740 125.321106,162.383362 124.741615,163.564667 
	C123.722771,165.641571 121.952965,167.350067 121.081696,169.855667 
	C125.976143,166.937103 129.832153,160.973572 136.232361,165.018021 
	C139.704819,167.212357 139.402908,171.365906 137.841431,175.460815 
z"/>
<path fill="#FFFFFF" opacity="1.000000" stroke="none" 
	d="
M377.020142,307.209595 
	C378.101349,306.202576 379.200928,305.082855 380.232300,305.142517 
	C383.283447,305.319092 386.307648,305.961456 389.649078,306.468140 
	C388.658600,301.136932 379.406921,301.248901 381.892426,294.534790 
	C386.560913,294.534790 390.523499,294.534790 394.066833,294.534790 
	C392.555664,290.310852 384.233978,290.590088 386.219116,282.625916 
	C391.693024,287.122345 396.767700,291.290924 401.833588,295.452209 
	C400.618011,298.604248 400.618011,298.604248 388.642090,299.235291 
	C392.049377,302.003540 394.954285,304.363617 397.869568,306.732117 
	C395.937347,310.996368 382.473663,311.609802 377.020142,307.209595 
z"/>
<path fill="#FFFFFF" opacity="1.000000" stroke="none" 
	d="
M232.984207,400.708435 
	C231.912888,401.885223 230.855286,402.628967 228.677063,404.160797 
	C229.218918,399.632538 229.590118,396.530426 230.082321,392.417206 
	C227.396759,395.528625 225.341400,397.909882 222.471008,401.235443 
	C220.868484,396.633026 219.612671,393.026367 218.363525,389.418793 
	C217.046829,393.061493 218.762329,398.123749 214.344513,400.322723 
	C213.764206,400.141602 213.183914,399.960480 212.603622,399.779358 
	C213.617310,394.121887 214.559708,388.449585 215.731628,382.825104 
	C215.884430,382.091766 217.314133,381.024689 217.982635,381.135620 
	C219.053757,381.313293 220.565063,382.152222 220.866898,383.054138 
	C221.931839,386.236298 222.561691,389.564087 223.427277,393.127869 
	C228.050171,390.865692 228.228241,382.397186 235.723145,384.224915 
	C234.803131,389.643524 233.900528,394.959442 232.984207,400.708435 
z"/>
<path fill="#FFFFFF" opacity="1.000000" stroke="none" 
	d="
M108.612289,301.760864 
	C106.033463,301.817230 102.698051,305.250214 101.873466,299.674133 
	C106.529060,297.840271 111.193649,296.002899 115.836227,294.174164 
	C115.220192,292.275421 114.748550,290.821716 114.254135,289.297852 
	C116.754395,286.280670 118.006523,288.534485 118.938133,290.746704 
	C122.418190,299.010468 125.775093,307.326050 129.239273,315.771118 
	C127.570168,317.000092 127.570168,317.000092 123.121460,312.985779 
	C119.689087,314.654877 116.280624,316.466309 112.730873,317.936737 
	C111.771698,318.334076 110.384476,317.698120 109.193710,317.536438 
	C109.843681,316.489349 110.246849,315.013000 111.187790,314.471924 
	C114.650520,312.480804 118.291527,310.799774 121.826012,309.021942 
	C120.327492,305.303467 118.970566,301.936340 117.472511,298.218994 
	C114.740204,299.289612 111.850578,300.421875 108.612289,301.760864 
z"/>
<path fill="#FFFFFF" opacity="1.000000" stroke="none" 
	d="
M146.234344,359.268372 
	C149.511246,355.398132 152.539230,351.786194 155.944260,347.724548 
	C162.752060,352.530762 156.109940,359.291351 158.387558,364.625214 
	C160.821167,361.655548 163.224335,358.723053 165.836197,355.535889 
	C167.069519,356.672241 168.013748,357.542267 168.953247,358.407898 
	C164.950256,363.263672 161.002182,368.052795 157.056183,372.839417 
	C153.649414,370.067841 152.821167,363.091583 155.224991,355.295868 
	C152.143005,359.126129 149.800171,362.037781 147.329803,365.107971 
	C144.289124,363.865723 143.498047,362.142059 146.234344,359.268372 
z"/>
<path fill="#FFFFFF" opacity="1.000000" stroke="none" 
	d="
M348.678192,368.180450 
	C348.692017,369.660828 348.432770,370.897339 347.878540,373.540924 
	C342.949921,367.688171 339.010651,363.010315 335.061279,358.320404 
	C339.279236,351.856354 344.210144,348.966156 348.143768,350.604370 
	C352.324066,352.345306 353.006714,355.619843 352.633270,359.811676 
	C354.447479,360.296661 356.707855,360.900879 358.968231,361.505127 
	C358.993164,362.064117 359.018127,362.623108 359.043091,363.182098 
	C356.683655,363.276306 354.309296,363.241852 351.970276,363.512451 
	C350.541046,363.677795 349.036560,364.109039 347.849945,364.866119 
	C347.517365,365.078308 348.192322,366.869629 348.678192,368.180450 
M342.530945,355.981354 
	C338.913422,359.039886 343.677948,359.933411 343.593689,361.668854 
	C345.553467,360.033478 347.400940,358.491791 349.082520,357.088562 
	C347.512024,353.713776 345.453217,353.733917 342.530945,355.981354 
z"/>
<path fill="#FFFFFF" opacity="1.000000" stroke="none" 
	d="
M274.999420,395.669800 
	C272.890747,402.731934 268.451843,403.773682 258.235168,403.622314 
	C257.744812,397.615997 257.253967,391.603424 256.766602,385.633545 
	C271.029541,383.144226 274.972076,385.294525 274.999420,395.669800 
M262.002502,398.302490 
	C264.212158,400.629639 268.475311,400.156189 269.877014,397.058777 
	C270.667664,395.311584 271.271210,391.967834 270.407196,391.272980 
	C268.012085,389.346802 264.803253,388.432495 260.575012,386.507904 
	C261.216919,391.422943 261.608551,394.421539 262.002502,398.302490 
z"/>
<path fill="#FFFFFF" opacity="1.000000" stroke="none" 
	d="
M324.310852,381.086182 
	C318.732666,376.664520 317.774109,373.141235 320.400146,368.079956 
	C322.581055,363.876617 328.265625,361.694427 333.323944,363.118744 
	C337.122406,364.188324 339.413574,368.456726 338.999390,373.691986 
	C338.694824,377.541992 335.106323,381.660553 331.358154,381.917969 
	C329.168823,382.068329 326.926788,381.451630 324.310852,381.086182 
M324.978943,368.534790 
	C322.469055,372.887024 323.684296,377.827301 327.576447,377.796173 
	C329.968994,377.777039 332.981201,376.355347 334.493835,374.543671 
	C335.413269,373.442474 334.747314,369.634491 333.475769,368.402832 
	C331.435028,366.425995 328.311218,365.269165 324.978943,368.534790 
z"/>
<path fill="#FFFFFF" opacity="1.000000" stroke="none" 
	d="
M133.261719,343.238495 
	C136.578674,340.285309 139.642563,337.580017 143.298309,334.352112 
	C145.286133,336.508545 147.608932,338.312744 148.929764,340.676788 
	C150.086578,342.747284 151.088242,345.804016 150.365936,347.764832 
	C149.681625,349.622528 146.613251,350.550598 144.698547,352.024170 
	C143.374298,353.043304 142.038712,354.156616 141.069641,355.490448 
	C140.412399,356.394989 140.381943,357.754944 140.071167,358.911194 
	C139.491562,358.895660 138.911957,358.880096 138.332352,358.864532 
	C138.220200,356.779236 138.106064,354.694000 137.996490,352.608582 
	C137.897873,350.731628 137.804245,348.854370 137.708420,346.977264 
	C137.184204,346.913513 136.659973,346.849792 136.135742,346.786041 
	C134.902908,347.815216 133.670059,348.844421 132.108551,350.147949 
	C131.157715,349.368805 130.099838,348.501923 128.731140,347.380371 
	C130.298096,345.953918 131.653366,344.720154 133.261719,343.238495 
M139.044601,344.420746 
	C139.367523,344.789642 139.680939,345.167358 140.014984,345.525909 
	C141.715179,347.350739 143.677658,349.506744 146.018173,347.141144 
	C146.714722,346.437103 145.477325,343.709747 144.953003,341.961365 
	C144.740753,341.253510 144.065765,340.684448 143.452957,339.850220 
	C141.911362,341.182709 140.473129,342.425873 139.044601,344.420746 
z"/>
<path fill="#FFFFFF" opacity="1.000000" stroke="none" 
	d="
M127.903023,320.000000 
	C132.999496,320.545013 135.592194,323.210419 137.308548,327.596527 
	C138.780396,331.357788 137.167862,333.892944 135.109467,336.287018 
	C131.601486,340.367035 127.656853,341.049194 123.421143,338.799835 
	C120.060211,337.015045 116.844414,330.582184 118.100143,327.031342 
	C119.595871,322.801849 122.442162,319.777435 127.903023,320.000000 
M130.958344,334.551147 
	C131.776688,332.325684 133.506744,329.965271 133.201935,327.906036 
	C132.732300,324.733429 127.987419,322.740234 125.462219,324.274170 
	C122.828453,325.873993 120.733383,328.390991 122.361618,331.632111 
	C123.899010,334.692474 126.480148,336.690369 130.958344,334.551147 
z"/>
<path fill="#FFFFFF" opacity="1.000000" stroke="none" 
	d="
M383.741394,316.018860 
	C387.047058,316.515930 389.900146,316.996765 393.634064,317.626038 
	C392.228119,318.941956 390.967926,320.959473 390.087067,320.805573 
	C385.477966,320.000366 384.698547,323.563385 383.271057,326.300293 
	C382.824310,327.156769 383.044495,328.427368 383.148682,329.489838 
	C383.318634,331.222565 383.644073,332.940002 383.903931,334.663910 
	C383.389343,334.768585 382.874786,334.873291 382.360199,334.977966 
	C378.914764,330.150665 375.362152,325.393860 372.105957,320.442108 
	C371.372833,319.327301 371.102783,317.224457 371.682220,316.149109 
	C372.134949,315.309021 374.244690,315.030457 375.597900,315.078094 
	C378.169189,315.168549 380.726044,315.671143 383.741394,316.018860 
z"/>
<path fill="#FFFFFF" opacity="1.000000" stroke="none" 
	d="
M173.662903,370.251343 
	C175.579712,371.515717 177.185486,372.562134 179.012192,373.752502 
	C178.561050,374.732910 178.043106,375.858459 177.596802,376.828308 
	C174.005539,377.443451 172.252869,370.986328 167.527710,374.719635 
	C170.377487,377.277832 172.988068,379.566528 175.473404,381.983978 
	C175.627792,382.134155 174.797943,383.296234 174.237976,384.337006 
	C170.038818,381.828094 165.938126,379.378021 161.897919,376.964111 
	C165.052658,371.863617 167.857925,367.175049 170.864761,362.619537 
	C171.357819,361.872528 173.115448,361.070007 173.646881,361.382935 
	C177.098236,363.415192 180.372086,365.748871 183.713058,367.989899 
	C181.673782,370.687592 181.673782,370.687592 172.757889,365.817871 
	C173.003525,367.561218 173.177689,368.797272 173.662903,370.251343 
z"/>
<path fill="#FFFFFF" opacity="1.000000" stroke="none" 
	d="
M106.351830,287.234161 
	C103.943993,289.229187 101.841568,291.019043 99.739143,292.808929 
	C99.254639,292.593994 98.770142,292.379028 98.285645,292.164093 
	C98.919647,290.535583 99.931435,288.945953 100.104019,287.269897 
	C100.404587,284.351013 100.187660,281.378845 99.201599,279.098297 
	C97.306816,277.469391 95.412033,275.840515 93.517258,274.211639 
	C93.773048,273.887573 94.028847,273.563507 94.284637,273.239441 
	C99.947601,274.160339 105.624695,275.005554 111.262894,276.058960 
	C112.562088,276.301697 114.645615,277.134369 114.750992,277.914124 
	C114.932236,279.255341 114.212860,281.149231 113.206856,282.127991 
	C111.268730,284.013580 108.866821,285.422455 106.351830,287.234161 
z"/>
<path fill="#FFFFFF" opacity="1.000000" stroke="none" 
	d="
M302.740356,388.242889 
	C304.549133,389.724396 306.099518,390.951782 308.666260,392.983856 
	C306.064392,394.011627 304.040253,395.130371 303.822662,394.849548 
	C300.246826,390.233917 296.281036,393.729431 293.104370,394.086945 
	C291.842773,396.393311 290.716278,398.452728 289.589783,400.512146 
	C289.036133,400.285583 288.482483,400.059021 287.928833,399.832458 
	C288.730377,393.119904 289.531921,386.407349 290.365479,379.426910 
	C295.426239,376.578186 296.710876,382.139404 299.557831,384.177887 
	C300.803497,385.069733 301.523346,386.696014 302.740356,388.242889 
z"/>
<path fill="#FFFFFF" opacity="1.000000" stroke="none" 
	d="
M245.987198,391.999878 
	C249.010330,392.029175 251.755402,391.800903 252.062332,395.900452 
	C249.106384,395.900452 246.325912,395.900452 243.589249,395.900452 
	C243.085388,399.977600 243.098801,399.782318 247.468765,400.082611 
	C249.642761,400.232025 253.824081,397.989227 252.852539,403.721252 
	C248.482895,403.721252 244.054947,403.721252 239.010895,403.721252 
	C239.010895,398.429779 238.849731,392.998138 239.165863,387.594421 
	C239.220001,386.668793 241.245758,385.249603 242.473343,385.119263 
	C245.750671,384.771301 249.089294,385.000793 252.698471,385.000793 
	C252.698471,386.376129 252.698471,387.553284 252.698471,389.241913 
	C249.589340,388.880737 246.721191,388.547546 243.476807,388.170654 
	C242.918121,390.001770 241.646881,392.085541 245.987198,391.999878 
z"/>
<path fill="#FFFFFF" opacity="1.000000" stroke="none" 
	d="
M152.735672,128.239960 
	C157.353622,133.897202 161.712280,139.302032 166.020523,144.644348 
	C165.881180,145.095581 165.883942,145.535919 165.685730,145.663162 
	C159.832855,149.420227 159.206970,149.257446 154.466354,142.981110 
	C151.739578,139.370987 148.982452,135.783783 145.984238,131.852188 
	C148.210175,130.924850 147.933807,125.891426 152.735672,128.239960 
z"/>
<path fill="#FFFFFF" opacity="1.000000" stroke="none" 
	d="
M184.999969,374.329407 
	C184.738220,372.481293 184.476501,371.086792 184.213440,369.685242 
	C188.130615,369.185242 188.671097,370.124084 189.152985,378.883301 
	C191.190094,377.708954 192.982651,376.431580 194.964691,375.613007 
	C196.451019,374.999146 198.181076,374.975494 199.802612,374.689026 
	C199.844650,375.089417 199.886703,375.489838 199.928757,375.890228 
	C195.205811,380.172424 190.482849,384.454620 185.759903,388.736816 
	C185.998871,389.180939 186.237823,389.625061 186.476776,390.069153 
	C185.289047,389.516785 184.101303,388.964417 184.030991,388.931732 
	C184.388596,383.710266 184.694305,379.246674 184.999969,374.329407 
z"/>
<path fill="#FFFFFF" opacity="1.000000" stroke="none" 
	d="
M312.293365,376.730377 
	C314.344513,381.128937 316.147278,385.227020 318.022583,389.489960 
	C316.837463,389.889801 315.665649,390.285126 314.132690,390.802338 
	C312.121429,386.414215 310.006348,381.799561 307.913788,377.234039 
	C305.457977,377.743347 302.730621,381.422119 301.166992,375.954041 
	C305.185608,374.078156 309.162720,372.021454 313.319489,370.435760 
	C314.245758,370.082397 315.803894,371.385468 317.414948,372.072540 
	C315.091644,373.957733 313.568329,375.193787 312.293365,376.730377 
z"/>
<path fill="#FFFFFF" opacity="1.000000" stroke="none" 
	d="
M401.861664,256.019257 
	C397.737610,258.621826 394.923340,256.526031 393.386993,253.586044 
	C391.986481,250.906021 392.503296,247.144485 395.749115,246.079926 
	C398.002075,245.340988 401.761841,245.789185 403.385498,247.289825 
	C406.246399,249.934006 405.488190,253.420883 401.861664,256.019257 
z"/>
<path fill="#FFFFFF" opacity="1.000000" stroke="none" 
	d="
M97.212318,249.439636 
	C98.849983,245.441879 101.914619,244.163147 105.219818,245.231125 
	C108.505211,246.292679 110.130981,249.640457 108.770134,252.758469 
	C107.947372,254.643631 105.077324,256.690979 103.049934,256.773682 
	C98.899651,256.943054 96.789703,254.084229 97.212318,249.439636 
z"/>
<path fill="#FFFFFF" opacity="1.000000" stroke="none" 
	d="
M374.289062,345.207336 
	C368.961273,341.805878 363.896667,338.163055 358.692230,334.419708 
	C360.380310,331.289948 362.006653,330.636200 364.639069,333.065308 
	C367.354431,335.570953 370.375214,337.745605 373.463318,340.226532 
	C375.209198,338.005402 376.789398,335.995026 378.447021,333.886108 
	C379.456177,334.979797 380.324554,335.920929 381.311066,336.990051 
	C378.936981,339.791626 376.744598,342.378845 374.289062,345.207336 
z"/>
<path fill="#FFFFFF" opacity="1.000000" stroke="none" 
	d="
M277.998596,389.052490 
	C277.574646,386.608002 277.152069,384.601746 276.729462,382.595520 
	C277.185760,382.225891 277.642029,381.856262 278.098328,381.486633 
	C279.068329,382.496002 280.607300,383.359314 280.910370,384.539917 
	C282.257935,389.789551 283.251556,395.130005 283.637146,400.729187 
	C277.323151,399.183075 279.960754,393.151917 277.998596,389.052490 
z"/>
<path fill="#FFFFFF" opacity="1.000000" stroke="none" 
	d="
M212.020721,116.113892 
	C213.974228,112.811096 216.724045,111.605438 219.284225,114.164261 
	C220.126495,115.006058 219.448639,119.026299 218.217148,119.979050 
	C214.300934,123.008842 213.031387,119.630196 212.020721,116.113892 
z"/>
<path fill="#0A283B" opacity="1.000000" stroke="none" 
	d="
M363.948547,289.866211 
	C347.275818,333.190094 316.884369,360.828491 271.364777,368.583160 
	C202.203049,380.365509 147.549576,334.383942 134.802521,278.277008 
	C119.538757,211.092606 160.694077,151.205261 219.721008,135.729889 
	C292.054749,116.765839 357.578125,164.209915 368.707092,231.353790 
	C371.955475,250.951996 370.814148,270.526215 363.948547,289.866211 
M173.870224,169.358536 
	C145.409027,197.244720 133.905212,231.028915 140.445633,270.232330 
	C152.430527,342.069946 230.106644,383.794708 296.525543,353.649445 
	C335.616638,335.907379 358.445068,304.522125 362.524200,261.755920 
	C366.581238,219.221756 350.422577,184.285919 315.561310,159.280319 
	C272.330902,128.271606 214.898178,132.595505 173.870224,169.358536 
z"/>
<path fill="#000000" opacity="1.000000" stroke="none" 
	d="
M338.130402,138.094528 
	C338.488861,137.677094 339.052521,137.434128 339.616150,137.191147 
	C339.484528,137.526443 339.352905,137.861740 338.998505,138.388275 
	C338.628998,138.475998 338.482269,138.372482 338.130402,138.094528 
z"/>
<path fill="#000000" opacity="1.000000" stroke="none" 
	d="
M284.030884,103.989029 
	C285.538910,103.680321 287.226898,103.392853 288.430847,104.025925 
	C289.267120,104.465660 289.996857,106.329002 289.733643,107.263138 
	C289.511719,108.050690 287.798035,108.836952 286.732391,108.853958 
	C285.587524,108.872231 284.428314,107.992599 283.523895,107.609932 
	C283.689392,106.505165 283.846863,105.454155 284.030884,103.989029 
z"/>
<path fill="#000000" opacity="1.000000" stroke="none" 
	d="
M118.757149,193.370773 
	C117.324852,195.805252 115.886734,199.338257 113.986938,199.606964 
	C111.966743,199.892685 108.646950,197.534500 107.565933,195.459915 
	C106.918053,194.216553 108.962555,190.163879 110.695381,189.392715 
	C113.851875,187.987991 117.035255,189.399231 118.757149,193.370773 
z"/>
<path fill="#000000" opacity="1.000000" stroke="none" 
	d="
M364.818237,150.533569 
	C361.024017,154.922760 359.908478,150.664917 357.305817,148.839142 
	C359.233948,147.614258 360.645111,146.717789 362.667419,145.433090 
	C363.533783,147.221054 364.254547,148.708496 364.818237,150.533569 
z"/>
<path fill="#000000" opacity="1.000000" stroke="none" 
	d="
M261.879761,99.986450 
	C261.902374,101.480293 261.722198,103.038399 261.028625,104.318260 
	C260.758026,104.817589 258.675568,105.044174 258.539673,104.791634 
	C257.695984,103.223679 257.171021,101.484215 256.086823,98.591957 
	C258.686951,99.242615 260.079315,99.591042 261.879761,99.986450 
z"/>
<path fill="#000000" opacity="1.000000" stroke="none" 
	d="
M342.787262,355.712585 
	C345.453217,353.733917 347.512024,353.713776 349.082520,357.088562 
	C347.400940,358.491791 345.553467,360.033478 343.593689,361.668854 
	C343.677948,359.933411 338.913422,359.039886 342.787262,355.712585 
z"/>
<path fill="#000000" opacity="1.000000" stroke="none" 
	d="
M262.001343,397.861298 
	C261.608551,394.421539 261.216919,391.422943 260.575012,386.507904 
	C264.803253,388.432495 268.012085,389.346802 270.407196,391.272980 
	C271.271210,391.967834 270.667664,395.311584 269.877014,397.058777 
	C268.475311,400.156189 264.212158,400.629639 262.001343,397.861298 
z"/>
<path fill="#000000" opacity="1.000000" stroke="none" 
	d="
M325.249847,368.261932 
	C328.311218,365.269165 331.435028,366.425995 333.475769,368.402832 
	C334.747314,369.634491 335.413269,373.442474 334.493835,374.543671 
	C332.981201,376.355347 329.968994,377.777039 327.576447,377.796173 
	C323.684296,377.827301 322.469055,372.887024 325.249847,368.261932 
z"/>
<path fill="#000000" opacity="1.000000" stroke="none" 
	d="
M139.039734,344.044891 
	C140.473129,342.425873 141.911362,341.182709 143.452957,339.850220 
	C144.065765,340.684448 144.740753,341.253510 144.953003,341.961365 
	C145.477325,343.709747 146.714722,346.437103 146.018173,347.141144 
	C143.677658,349.506744 141.715179,347.350739 140.014984,345.525909 
	C139.680939,345.167358 139.367523,344.789642 139.039734,344.044891 
z"/>
<path fill="#000000" opacity="1.000000" stroke="none" 
	d="
M130.636475,334.760437 
	C126.480148,336.690369 123.899010,334.692474 122.361618,331.632111 
	C120.733383,328.390991 122.828453,325.873993 125.462219,324.274170 
	C127.987419,322.740234 132.732300,324.733429 133.201935,327.906036 
	C133.506744,329.965271 131.776688,332.325684 130.636475,334.760437 
z"/>
<path fill="#FDFDFD" opacity="1.000000" stroke="none" 
	d="
M174.130447,169.118713 
	C214.898178,132.595505 272.330902,128.271606 315.561310,159.280319 
	C350.422577,184.285919 366.581238,219.221756 362.524200,261.755920 
	C358.445068,304.522125 335.616638,335.907379 296.525543,353.649445 
	C230.106644,383.794708 152.430527,342.069946 140.445633,270.232330 
	C133.905212,231.028915 145.409027,197.244720 174.130447,169.118713 
M321.155945,214.987640 
	C306.973694,224.563477 291.751038,228.043564 274.518616,223.310608 
	C283.974274,215.225113 285.726715,205.331161 279.505188,197.698914 
	C274.285004,191.295059 265.755066,191.487869 260.713867,198.062805 
	C256.787750,203.183441 256.926117,208.843201 257.961761,215.038162 
	C257.961761,215.038162 257.631256,215.369308 256.940430,215.186142 
	C250.983734,212.698059 245.145569,209.858459 239.043777,207.800613 
	C228.752426,204.329849 218.943237,206.158142 209.710434,211.630661 
	C211.175888,211.934891 212.645569,212.042038 214.021378,211.732330 
	C223.083832,209.692291 231.558731,211.465118 239.545670,215.792923 
	C244.646927,218.557083 249.625565,221.572189 254.507645,224.710526 
	C262.398438,229.782959 266.718170,237.251480 268.034454,246.416824 
	C271.426208,270.033661 261.191376,289.706818 238.368668,302.220612 
	C251.362442,301.050598 260.743927,295.160919 268.535858,286.822968 
	C282.642548,271.727661 285.949921,253.879013 280.292236,234.138947 
	C297.493103,234.260208 312.049469,229.245758 322.933441,214.971008 
	C322.845886,214.708191 322.758331,214.445389 322.670715,214.182556 
	C322.392395,214.399261 322.114075,214.615967 321.155945,214.987640 
M234.306229,325.553284 
	C254.429779,325.994263 277.508545,313.799408 281.118439,306.229889 
	C264.180206,315.876740 246.740677,319.598267 228.278458,316.843048 
	C209.448624,314.033020 193.359299,305.405975 181.549911,290.543091 
	C157.698853,260.525024 157.357498,228.789719 176.898605,195.957657 
	C176.089325,196.295059 175.553589,196.355270 175.282196,196.654907 
	C159.531143,214.045105 152.632828,234.577499 155.363098,257.749542 
	C160.174088,298.580627 194.946136,327.318054 234.306229,325.553284 
M206.799576,186.260239 
	C233.510590,166.943939 261.313293,166.606949 290.216339,181.830872 
	C283.947693,171.952042 260.256409,164.446030 245.404068,164.981430 
	C215.357986,166.064514 192.658768,179.583908 179.277481,206.432739 
	C165.876282,233.321564 169.752289,259.368622 186.996429,283.803925 
	C170.646759,246.840805 174.248016,213.936325 206.799576,186.260239 
M284.079773,288.562286 
	C292.944977,275.694885 297.155334,256.398438 292.380096,248.778625 
	C291.736603,267.672791 284.132263,282.793884 269.851685,294.457092 
	C255.473618,306.199921 238.690308,309.073700 220.638107,306.940308 
	C242.154648,316.713501 268.704010,309.061462 284.079773,288.562286 
M210.139343,276.225342 
	C222.392166,277.172821 230.557983,273.488312 231.703613,266.360107 
	C219.516403,266.360107 207.353333,266.360107 195.157043,266.360107 
	C196.046310,272.105652 200.507141,275.130249 210.139343,276.225342 
M323.633362,276.210022 
	C336.709320,276.462372 343.835815,272.928711 343.521423,266.360199 
	C331.460876,266.360199 319.400330,266.360199 307.293976,266.360199 
	C308.640686,272.425018 313.598572,275.520111 323.633362,276.210022 
M333.929138,235.529160 
	C331.323669,229.262787 328.718201,222.996399 325.688538,215.709778 
	C320.852478,227.590775 316.540894,238.183350 312.229279,248.775909 
	C312.721375,249.019623 313.213470,249.263351 313.705566,249.507065 
	C317.628998,241.010864 321.552460,232.514648 325.780182,223.359467 
	C329.546082,231.702332 332.968994,239.285339 336.391907,246.868362 
	C336.849854,246.719238 337.307800,246.570129 337.765778,246.421021 
	C336.552979,243.037872 335.340210,239.654724 333.929138,235.529160 
M210.297745,229.891403 
	C211.275162,227.897888 212.252563,225.904358 213.454651,223.452606 
	C217.613983,232.629501 221.501785,241.207336 225.389587,249.785156 
	C225.886261,249.579849 226.382919,249.374542 226.879578,249.169235 
	C222.560135,238.362976 218.240677,227.556717 213.451843,215.576157 
	C209.017792,226.377319 205.048904,236.045334 201.080017,245.713348 
	C201.611099,245.984512 202.142181,246.255676 202.673264,246.526840 
	C205.127563,241.219391 207.581848,235.911942 210.297745,229.891403 
z"/>
<path fill="#08263A" opacity="1.000000" stroke="none" 
	d="
M258.292053,214.706802 
	C256.926117,208.843201 256.787750,203.183441 260.713867,198.062805 
	C265.755066,191.487869 274.285004,191.295059 279.505188,197.698914 
	C285.726715,205.331161 283.974274,215.225113 274.518616,223.310608 
	C291.751038,228.043564 306.973694,224.563477 321.703430,215.087143 
	C322.404572,215.283844 322.558258,215.381058 322.711914,215.478287 
	C312.049469,229.245758 297.493103,234.260208 280.292236,234.138947 
	C285.949921,253.879013 282.642548,271.727661 268.535858,286.822968 
	C260.743927,295.160919 251.362442,301.050598 238.368668,302.220612 
	C261.191376,289.706818 271.426208,270.033661 268.034454,246.416824 
	C266.718170,237.251480 262.398438,229.782959 254.507645,224.710526 
	C249.625565,221.572189 244.646927,218.557083 239.545670,215.792923 
	C231.558731,211.465118 223.083832,209.692291 214.021378,211.732330 
	C212.645569,212.042038 211.175888,211.934891 209.710434,211.630661 
	C218.943237,206.158142 228.752426,204.329849 239.043777,207.800613 
	C245.145569,209.858459 250.983734,212.698059 257.459473,215.483109 
	C258.226440,215.748138 258.474365,215.716217 258.722290,215.684280 
	C258.578888,215.358459 258.435455,215.032623 258.292053,214.706802 
z"/>
<path fill="#09273B" opacity="1.000000" stroke="none" 
	d="
M233.838593,325.566040 
	C194.946136,327.318054 160.174088,298.580627 155.363098,257.749542 
	C152.632828,234.577499 159.531143,214.045105 175.282196,196.654907 
	C175.553589,196.355270 176.089325,196.295059 176.898605,195.957657 
	C157.357498,228.789719 157.698853,260.525024 181.549911,290.543091 
	C193.359299,305.405975 209.448624,314.033020 228.278458,316.843048 
	C246.740677,319.598267 264.180206,315.876740 281.118439,306.229889 
	C277.508545,313.799408 254.429779,325.994263 233.838593,325.566040 
z"/>
<path fill="#0C293D" opacity="1.000000" stroke="none" 
	d="
M206.521301,186.486633 
	C174.248016,213.936325 170.646759,246.840805 186.996429,283.803925 
	C169.752289,259.368622 165.876282,233.321564 179.277481,206.432739 
	C192.658768,179.583908 215.357986,166.064514 245.404068,164.981430 
	C260.256409,164.446030 283.947693,171.952042 290.216339,181.830872 
	C261.313293,166.606949 233.510590,166.943939 206.521301,186.486633 
z"/>
<path fill="#102D40" opacity="1.000000" stroke="none" 
	d="
M283.885193,288.863464 
	C268.704010,309.061462 242.154648,316.713501 220.638107,306.940308 
	C238.690308,309.073700 255.473618,306.199921 269.851685,294.457092 
	C284.132263,282.793884 291.736603,267.672791 292.380096,248.778625 
	C297.155334,256.398438 292.944977,275.694885 283.885193,288.863464 
z"/>
<path fill="#0E2C3F" opacity="1.000000" stroke="none" 
	d="
M209.722214,276.187805 
	C200.507141,275.130249 196.046310,272.105652 195.157043,266.360107 
	C207.353333,266.360107 219.516403,266.360107 231.703613,266.360107 
	C230.557983,273.488312 222.392166,277.172821 209.722214,276.187805 
z"/>
<path fill="#0D2B3E" opacity="1.000000" stroke="none" 
	d="
M323.168121,276.188904 
	C313.598572,275.520111 308.640686,272.425018 307.293976,266.360199 
	C319.400330,266.360199 331.460876,266.360199 343.522095,266.354065 
	C343.835815,272.928711 336.709320,276.462372 323.168121,276.188904 
z"/>
<path fill="#1D384A" opacity="1.000000" stroke="none" 
	d="
M334.028259,235.900360 
	C335.340210,239.654724 336.552979,243.037872 337.765778,246.421021 
	C337.307800,246.570129 336.849854,246.719238 336.391907,246.868362 
	C332.968994,239.285339 329.546082,231.702332 325.780182,223.359467 
	C321.552460,232.514648 317.628998,241.010864 313.705566,249.507065 
	C313.213470,249.263351 312.721375,249.019623 312.229279,248.775909 
	C316.540894,238.183350 320.852478,227.590775 325.688538,215.709778 
	C328.718201,222.996399 331.323669,229.262787 334.028259,235.900360 
z"/>
<path fill="#1A3648" opacity="1.000000" stroke="none" 
	d="
M210.166946,230.247955 
	C207.581848,235.911942 205.127563,241.219391 202.673264,246.526840 
	C202.142181,246.255676 201.611099,245.984512 201.080017,245.713348 
	C205.048904,236.045334 209.017792,226.377319 213.451843,215.576157 
	C218.240677,227.556717 222.560135,238.362976 226.879578,249.169235 
	C226.382919,249.374542 225.886261,249.579849 225.389587,249.785156 
	C221.501785,241.207336 217.613983,232.629501 213.454651,223.452606 
	C212.252563,225.904358 211.275162,227.897888 210.166946,230.247955 
z"/>
<path fill="#08263A" opacity="1.000000" stroke="none" 
	d="
M322.043335,215.009674 
	C322.114075,214.615967 322.392395,214.399261 322.670715,214.182556 
	C322.758331,214.445389 322.845886,214.708191 322.822693,215.224640 
	C322.558258,215.381058 322.404572,215.283844 322.043335,215.009674 
z"/>
<path fill="#FDFDFD" opacity="1.000000" stroke="none" 
	d="
M258.126892,214.872482 
	C258.435455,215.032623 258.578888,215.358459 258.722290,215.684280 
	C258.474365,215.716217 258.226440,215.748138 257.804871,215.574692 
	C257.631256,215.369308 257.961761,215.038162 258.126892,214.872482 
z"/>
</svg>